<svg width="109" height="30" viewBox="0 0 109 30" fill="none" xmlns="http://www.w3.org/2000/svg">
<path d="M11.24 23.3C9.68 23.3 8.22 23.03 6.86 22.49C5.5 21.93 4.31 21.16 3.29 20.18C2.29 19.2 1.5 18.06 0.92 16.76C0.36 15.44 0.0800001 14.02 0.0800001 12.5C0.0800001 10.96 0.36 9.54 0.92 8.24C1.5 6.92 2.3 5.77 3.32 4.79C4.34 3.81 5.52 3.05 6.86 2.51C8.22 1.95 9.68 1.67 11.24 1.67C12.4 1.67 13.52 1.83 14.6 2.15C15.68 2.47 16.68 2.92 17.6 3.5C18.54 4.08 19.34 4.78 20 5.6L17.06 8.51C16.3 7.57 15.42 6.86 14.42 6.38C13.44 5.9 12.38 5.66 11.24 5.66C10.3 5.66 9.42 5.84 8.6 6.2C7.78 6.54 7.07 7.02 6.47 7.64C5.87 8.24 5.4 8.96 5.06 9.8C4.72 10.62 4.55 11.52 4.55 12.5C4.55 13.46 4.72 14.36 5.06 15.2C5.4 16.02 5.88 16.74 6.5 17.36C7.12 17.96 7.84 18.43 8.66 18.77C9.5 19.11 10.41 19.28 11.39 19.28C12.49 19.28 13.52 19.05 14.48 18.59C15.44 18.13 16.29 17.47 17.03 16.61L19.88 19.43C19.22 20.23 18.43 20.92 17.51 21.5C16.59 22.08 15.59 22.53 14.51 22.85C13.45 23.15 12.36 23.3 11.24 23.3ZM29.3338 23.3C27.7738 23.3 26.3638 22.94 25.1038 22.22C23.8438 21.5 22.8438 20.53 22.1038 19.31C21.3638 18.09 20.9938 16.72 20.9938 15.2C20.9938 13.68 21.3538 12.31 22.0737 11.09C22.8138 9.85 23.8138 8.87 25.0738 8.15C26.3538 7.43 27.7738 7.07 29.3338 7.07C30.8938 7.07 32.3038 7.43 33.5638 8.15C34.8438 8.87 35.8438 9.85 36.5638 11.09C37.3038 12.31 37.6738 13.68 37.6738 15.2C37.6738 16.72 37.3038 18.09 36.5638 19.31C35.8438 20.53 34.8538 21.5 33.5938 22.22C32.3338 22.94 30.9138 23.3 29.3338 23.3ZM29.3338 19.73C30.1538 19.73 30.8838 19.53 31.5238 19.13C32.1838 18.73 32.7038 18.19 33.0838 17.51C33.4838 16.81 33.6838 16.04 33.6838 15.2C33.6838 14.34 33.4838 13.57 33.0838 12.89C32.7038 12.21 32.1838 11.67 31.5238 11.27C30.8838 10.85 30.1538 10.64 29.3338 10.64C28.5338 10.64 27.8038 10.85 27.1438 11.27C26.4838 11.67 25.9638 12.21 25.5838 12.89C25.2038 13.57 25.0138 14.34 25.0138 15.2C25.0138 16.04 25.2038 16.81 25.5838 17.51C25.9638 18.19 26.4838 18.73 27.1438 19.13C27.8038 19.53 28.5338 19.73 29.3338 19.73ZM47.8201 23.3C46.2601 23.3 44.8501 22.94 43.5901 22.22C42.3301 21.5 41.3301 20.53 40.5901 19.31C39.8501 18.09 39.4801 16.72 39.4801 15.2C39.4801 13.68 39.8401 12.31 40.5601 11.09C41.3001 9.85 42.3001 8.87 43.5601 8.15C44.8401 7.43 46.2601 7.07 47.8201 7.07C49.3801 7.07 50.7901 7.43 52.0501 8.15C53.3301 8.87 54.3301 9.85 55.0501 11.09C55.7901 12.31 56.1601 13.68 56.1601 15.2C56.1601 16.72 55.7901 18.09 55.0501 19.31C54.3301 20.53 53.3401 21.5 52.0801 22.22C50.8201 22.94 49.4001 23.3 47.8201 23.3ZM47.8201 19.73C48.6401 19.73 49.3701 19.53 50.0101 19.13C50.6701 18.73 51.1901 18.19 51.5701 17.51C51.9701 16.81 52.1701 16.04 52.1701 15.2C52.1701 14.34 51.9701 13.57 51.5701 12.89C51.1901 12.21 50.6701 11.67 50.0101 11.27C49.3701 10.85 48.6401 10.64 47.8201 10.64C47.0201 10.64 46.2901 10.85 45.6301 11.27C44.9701 11.67 44.4501 12.21 44.0701 12.89C43.6901 13.57 43.5001 14.34 43.5001 15.2C43.5001 16.04 43.6901 16.81 44.0701 17.51C44.4501 18.19 44.9701 18.73 45.6301 19.13C46.2901 19.53 47.0201 19.73 47.8201 19.73ZM58.6864 23V2L62.7964 1.31V23H58.6864ZM68.0506 5.51C67.4106 5.51 66.8606 5.28 66.4006 4.82C65.9406 4.36 65.7106 3.81 65.7106 3.17C65.7106 2.51 65.9406 1.96 66.4006 1.52C66.8606 1.06 67.4106 0.829999 68.0506 0.829999C68.7106 0.829999 69.2606 1.06 69.7006 1.52C70.1606 1.96 70.3906 2.51 70.3906 3.17C70.3906 3.81 70.1606 4.36 69.7006 4.82C69.2606 5.28 68.7106 5.51 68.0506 5.51ZM65.0506 29.42C64.6706 29.42 64.2806 29.39 63.8806 29.33C63.4806 29.29 63.1606 29.23 62.9206 29.15V26C63.2806 26.08 63.7206 26.12 64.2406 26.12C64.8406 26.12 65.2806 25.99 65.5606 25.73C65.8606 25.49 66.0106 25.09 66.0106 24.53V7.37H70.1206V24.77C70.1206 26.25 69.6806 27.39 68.8006 28.19C67.9206 29.01 66.6706 29.42 65.0506 29.42ZM80.9548 23.3C79.3948 23.3 77.9848 22.94 76.7248 22.22C75.4648 21.5 74.4648 20.53 73.7248 19.31C72.9848 18.09 72.6148 16.72 72.6148 15.2C72.6148 13.68 72.9748 12.31 73.6948 11.09C74.4348 9.85 75.4348 8.87 76.6948 8.15C77.9748 7.43 79.3948 7.07 80.9548 7.07C82.5148 7.07 83.9248 7.43 85.1848 8.15C86.4648 8.87 87.4648 9.85 88.1848 11.09C88.9248 12.31 89.2948 13.68 89.2948 15.2C89.2948 16.72 88.9248 18.09 88.1848 19.31C87.4648 20.53 86.4748 21.5 85.2148 22.22C83.9548 22.94 82.5348 23.3 80.9548 23.3ZM80.9548 19.73C81.7748 19.73 82.5048 19.53 83.1448 19.13C83.8048 18.73 84.3248 18.19 84.7048 17.51C85.1048 16.81 85.3048 16.04 85.3048 15.2C85.3048 14.34 85.1048 13.57 84.7048 12.89C84.3248 12.21 83.8048 11.67 83.1448 11.27C82.5048 10.85 81.7748 10.64 80.9548 10.64C80.1548 10.64 79.4248 10.85 78.7648 11.27C78.1048 11.67 77.5848 12.21 77.2048 12.89C76.8248 13.57 76.6348 14.34 76.6348 15.2C76.6348 16.04 76.8248 16.81 77.2048 17.51C77.5848 18.19 78.1048 18.73 78.7648 19.13C79.4248 19.53 80.1548 19.73 80.9548 19.73ZM91.8212 23V2L95.9312 1.31V8.63C97.1712 7.65 98.6312 7.16 100.311 7.16C101.791 7.16 103.131 7.52 104.331 8.24C105.531 8.96 106.481 9.93 107.181 11.15C107.901 12.35 108.261 13.7 108.261 15.2C108.261 16.7 107.901 18.06 107.181 19.28C106.461 20.48 105.491 21.44 104.271 22.16C103.051 22.86 101.691 23.21 100.191 23.21C99.4112 23.21 98.6512 23.1 97.9112 22.88C97.1712 22.66 96.4912 22.34 95.8712 21.92V23H91.8212ZM99.6512 19.73C100.511 19.73 101.281 19.53 101.961 19.13C102.661 18.73 103.211 18.19 103.611 17.51C104.011 16.83 104.211 16.06 104.211 15.2C104.211 14.34 104.011 13.57 103.611 12.89C103.211 12.19 102.661 11.65 101.961 11.27C101.281 10.87 100.511 10.67 99.6512 10.67C98.8912 10.67 98.1912 10.8 97.5512 11.06C96.9312 11.3 96.3912 11.67 95.9312 12.17V18.26C96.3712 18.72 96.9112 19.08 97.5512 19.34C98.2112 19.6 98.9112 19.73 99.6512 19.73Z" fill="#274059"/>
</svg>
