<svg width="31" height="30" viewBox="0 0 31 30" fill="none" xmlns="http://www.w3.org/2000/svg">
<path d="M29.5064 13.6821L22.6072 7.5235V3.32898C22.6439 2.48832 22.3788 1.66579 21.8699 1.04175C21.361 0.417708 20.6499 0.043078 19.8925 0H2.79446C2.0424 0.051532 1.33891 0.429826 0.836405 1.05293C0.333897 1.67603 0.0728335 2.49377 0.109771 3.32898V19.9739C0.0958504 20.6349 0.259595 21.2855 0.580131 21.8428C0.900667 22.4001 1.36348 22.8389 1.90956 23.1031C1.63335 23.8531 1.5257 24.6663 1.5959 25.4727C1.6661 26.2791 1.91205 27.0545 2.31253 27.7319C2.713 28.4092 3.25597 28.9683 3.89459 29.3608C4.5332 29.7533 5.24828 29.9675 5.97813 29.9849C6.70798 30.0022 7.43067 29.8222 8.08385 29.4604C8.73704 29.0986 9.30109 28.5659 9.72734 27.9082C10.1536 27.2505 10.4292 26.4875 10.5305 25.6852C10.6318 24.8829 10.5556 24.0653 10.3086 23.3029H19.8475C19.6008 24.0571 19.5216 24.8662 19.6164 25.6616C19.7113 26.4571 19.9775 27.2154 20.3924 27.8725C20.8074 28.5296 21.3589 29.066 22.0003 29.4363C22.6417 29.8066 23.354 30 24.077 30C24.8 30 25.5124 29.8066 26.1537 29.4363C26.7951 29.066 27.3467 28.5296 27.7616 27.8725C28.1766 27.2154 28.4428 26.4571 28.5376 25.6616C28.6325 24.8662 28.5532 24.0571 28.3065 23.3029H28.6065C29.0043 23.3029 29.3858 23.1275 29.667 22.8154C29.9483 22.5032 30.1063 22.0798 30.1063 21.6384V14.9804C30.1017 14.7277 30.0453 14.4794 29.9414 14.2544C29.8374 14.0295 29.6887 13.8338 29.5064 13.6821ZM27.1067 15.7794V19.9739H22.6072V11.7846L27.1067 15.7794ZM7.60891 24.9674C7.60891 25.2966 7.52095 25.6184 7.35614 25.8921C7.19134 26.1658 6.9571 26.3792 6.68304 26.5052C6.40898 26.6311 6.10742 26.6641 5.81648 26.5999C5.52554 26.5357 5.2583 26.3771 5.04854 26.1443C4.83879 25.9116 4.69594 25.615 4.63807 25.2921C4.5802 24.9692 4.6099 24.6345 4.72342 24.3304C4.83694 24.0263 5.02918 23.7663 5.27582 23.5834C5.52247 23.4005 5.81244 23.3029 6.10908 23.3029C6.50686 23.3029 6.88835 23.4782 7.16962 23.7904C7.45089 24.1025 7.60891 24.5259 7.60891 24.9674ZM15.108 19.9739H3.10943V3.32898H19.6075V19.9739H15.108ZM25.6068 24.9674C25.6068 25.2966 25.5189 25.6184 25.3541 25.8921C25.1893 26.1658 24.955 26.3792 24.681 26.5052C24.4069 26.6311 24.1053 26.6641 23.8144 26.5999C23.5235 26.5357 23.2562 26.3771 23.0465 26.1443C22.8367 25.9116 22.6939 25.615 22.636 25.2921C22.5781 24.9692 22.6078 24.6345 22.7214 24.3304C22.8349 24.0263 23.0271 23.7663 23.2738 23.5834C23.5204 23.4005 23.8104 23.3029 24.107 23.3029C24.5048 23.3029 24.8863 23.4782 25.1676 23.7904C25.4488 24.1025 25.6068 24.5259 25.6068 24.9674Z" fill="#6563FF"/>
</svg>
