<svg width="116" height="20" viewBox="0 0 116 20" fill="none" xmlns="http://www.w3.org/2000/svg">
<path d="M9.05187 3.3559C7.70312 3.3559 7.2985 3.88224 7.2985 5.05456V6.99247H10.9131L10.5625 10.1506H7.2985V19.6966H2.95553V10.1506H0.0422363V7.0164H2.95553V5.12634C2.95553 1.92041 4.41218 0.245667 8.43145 0.245667C9.26767 0.245667 10.1309 0.293516 10.9671 0.389216V3.3559" fill="#F40009"/>
<path d="M9.05187 3.3559C7.70312 3.3559 7.2985 3.88224 7.2985 5.05456V6.99247H10.9131L10.5625 10.1506H7.2985V19.6966H2.95553V10.1506H0.0422363V7.0164H2.95553V5.12634C2.95553 1.92041 4.41218 0.245667 8.43145 0.245667C9.26767 0.245667 10.1309 0.293516 10.9671 0.389216V3.3559" fill="#434343"/>
<path d="M11.2099 12.9498C11.2099 9.40889 13.0981 6.72931 17.0904 6.72931C19.2484 6.72931 20.5702 7.71023 21.2176 8.95432V7.01641H25.3717V19.7205H21.1906V17.8065C20.5972 19.0267 19.2215 19.9837 17.0635 19.9837C13.0981 19.9837 11.1829 17.328 11.1829 13.7632M15.5529 13.8111C15.5529 15.7011 16.3351 16.9691 18.3583 16.9691C20.1386 16.9691 21.0288 15.8208 21.0288 14.0025V12.7105C21.0288 10.8922 20.1116 9.74384 18.3583 9.74384C16.3351 9.74384 15.5529 10.9879 15.5529 12.9019V13.8111Z" fill="#F40009"/>
<path d="M11.2099 12.9498C11.2099 9.40889 13.0981 6.72931 17.0904 6.72931C19.2484 6.72931 20.5702 7.71023 21.2176 8.95432V7.01641H25.3717V19.7205H21.1906V17.8065C20.5972 19.0267 19.2215 19.9837 17.0635 19.9837C13.0981 19.9837 11.1829 17.328 11.1829 13.7632M15.5529 13.8111C15.5529 15.7011 16.3351 16.9691 18.3583 16.9691C20.1386 16.9691 21.0288 15.8208 21.0288 14.0025V12.7105C21.0288 10.8922 20.1116 9.74384 18.3583 9.74384C16.3351 9.74384 15.5529 10.9879 15.5529 12.9019V13.8111Z" fill="#434343"/>
<path d="M34.3814 6.72931C36.0538 6.72931 37.6723 7.04033 38.5355 7.5906L37.5644 10.318C36.6742 9.93524 35.6762 9.74384 34.6781 9.74384C32.3313 9.74384 31.3062 10.9401 31.3062 12.9976V13.7393C31.3062 15.7968 32.3313 16.9931 34.6781 16.9931C35.6762 16.9931 36.6742 16.7777 37.5644 16.3949L38.5355 19.1224C37.6723 19.6487 36.0808 19.9837 34.3814 19.9837C29.2831 19.9837 26.9902 17.5673 26.9902 13.6675V13.0694C26.9902 9.16964 29.2831 6.72931 34.3814 6.72931Z" fill="#F40009"/>
<path d="M34.3814 6.72931C36.0538 6.72931 37.6723 7.04033 38.5355 7.5906L37.5644 10.318C36.6742 9.93524 35.6762 9.74384 34.6781 9.74384C32.3313 9.74384 31.3062 10.9401 31.3062 12.9976V13.7393C31.3062 15.7968 32.3313 16.9931 34.6781 16.9931C35.6762 16.9931 36.6742 16.7777 37.5644 16.3949L38.5355 19.1224C37.6723 19.6487 36.0808 19.9837 34.3814 19.9837C29.2831 19.9837 26.9902 17.5673 26.9902 13.6675V13.0694C26.9902 9.16964 29.2831 6.72931 34.3814 6.72931Z" fill="#434343"/>
<path d="M39.1021 13.835V12.7105C39.1021 9.09787 41.4219 6.72931 46.1425 6.72931C50.5934 6.72931 52.5626 9.12179 52.5626 12.6627V14.6963H43.445C43.5259 16.4428 44.4161 17.2084 46.8169 17.2084C48.3814 17.2084 49.946 16.9452 51.4296 16.4428L52.2119 19.0745C51.0789 19.6009 48.7321 20.0076 46.655 20.0076C41.1521 19.9837 39.1021 17.5673 39.1021 13.835ZM43.445 12.1602H48.6782V11.8492C48.6782 10.4616 48.0577 9.36104 46.1425 9.36104C44.2003 9.36104 43.445 10.4616 43.445 12.1602Z" fill="#F40009"/>
<path d="M39.1021 13.835V12.7105C39.1021 9.09787 41.4219 6.72931 46.1425 6.72931C50.5934 6.72931 52.5626 9.12179 52.5626 12.6627V14.6963H43.445C43.5259 16.4428 44.4161 17.2084 46.8169 17.2084C48.3814 17.2084 49.946 16.9452 51.4296 16.4428L52.2119 19.0745C51.0789 19.6009 48.7321 20.0076 46.655 20.0076C41.1521 19.9837 39.1021 17.5673 39.1021 13.835ZM43.445 12.1602H48.6782V11.8492C48.6782 10.4616 48.0577 9.36104 46.1425 9.36104C44.2003 9.36104 43.445 10.4616 43.445 12.1602Z" fill="#434343"/>
<path d="M68.6396 13.7632C68.6396 17.3041 66.7243 19.9837 62.732 19.9837C60.5741 19.9837 59.0635 19.0267 58.47 17.8065V19.7205H54.3698V0.628466L58.7128 0.293518V8.78684C59.3332 7.66237 60.7359 6.75323 62.759 6.75323C66.7243 6.75323 68.6665 9.40889 68.6665 12.9737M64.2966 12.878C64.2966 11.0836 63.5143 9.74383 61.4373 9.74383C59.6569 9.74383 58.7128 10.8683 58.7128 12.6866V14.0264C58.7128 15.8447 59.6839 16.9691 61.4373 16.9691C63.5143 16.9691 64.2966 15.6293 64.2966 13.835V12.878Z" fill="#F40009"/>
<path d="M68.6396 13.7632C68.6396 17.3041 66.7243 19.9837 62.732 19.9837C60.5741 19.9837 59.0635 19.0267 58.47 17.8065V19.7205H54.3698V0.628466L58.7128 0.293518V8.78684C59.3332 7.66237 60.7359 6.75323 62.759 6.75323C66.7243 6.75323 68.6665 9.40889 68.6665 12.9737M64.2966 12.878C64.2966 11.0836 63.5143 9.74383 61.4373 9.74383C59.6569 9.74383 58.7128 10.8683 58.7128 12.6866V14.0264C58.7128 15.8447 59.6839 16.9691 61.4373 16.9691C63.5143 16.9691 64.2966 15.6293 64.2966 13.835V12.878Z" fill="#434343"/>
<path d="M70.0692 13.6675V13.0215C70.0692 9.36104 72.416 6.72931 77.1906 6.72931C81.9652 6.72931 84.312 9.36104 84.312 13.0215V13.6675C84.312 17.328 81.9652 19.9597 77.1906 19.9597C72.416 19.9597 70.0692 17.3519 70.0692 13.6675ZM79.996 12.7584C79.996 11.0836 79.2137 9.74384 77.1906 9.74384C75.1675 9.74384 74.3852 11.0836 74.3852 12.7584V13.9546C74.3852 15.6294 75.1675 16.9691 77.1906 16.9691C79.2137 16.9691 79.996 15.6294 79.996 13.9546V12.7584Z" fill="#F40009"/>
<path d="M70.0692 13.6675V13.0215C70.0692 9.36104 72.416 6.72931 77.1906 6.72931C81.9652 6.72931 84.312 9.36104 84.312 13.0215V13.6675C84.312 17.328 81.9652 19.9597 77.1906 19.9597C72.416 19.9597 70.0692 17.3519 70.0692 13.6675ZM79.996 12.7584C79.996 11.0836 79.2137 9.74384 77.1906 9.74384C75.1675 9.74384 74.3852 11.0836 74.3852 12.7584V13.9546C74.3852 15.6294 75.1675 16.9691 77.1906 16.9691C79.2137 16.9691 79.996 15.6294 79.996 13.9546V12.7584Z" fill="#434343"/>
<path d="M85.7957 13.6675V13.0215C85.7957 9.36104 88.1425 6.72931 92.917 6.72931C97.6916 6.72931 100.038 9.36104 100.038 13.0215V13.6675C100.038 17.328 97.6916 19.9597 92.917 19.9597C88.1425 19.9597 85.7957 17.3519 85.7957 13.6675ZM95.7224 12.7584C95.7224 11.0836 94.9402 9.74384 92.917 9.74384C90.8939 9.74384 90.1116 11.0836 90.1116 12.7584V13.9546C90.1116 15.6294 90.8939 16.9691 92.917 16.9691C94.9402 16.9691 95.7224 15.6294 95.7224 13.9546V12.7584Z" fill="#F40009"/>
<path d="M85.7957 13.6675V13.0215C85.7957 9.36104 88.1425 6.72931 92.917 6.72931C97.6916 6.72931 100.038 9.36104 100.038 13.0215V13.6675C100.038 17.328 97.6916 19.9597 92.917 19.9597C88.1425 19.9597 85.7957 17.3519 85.7957 13.6675ZM95.7224 12.7584C95.7224 11.0836 94.9402 9.74384 92.917 9.74384C90.8939 9.74384 90.1116 11.0836 90.1116 12.7584V13.9546C90.1116 15.6294 90.8939 16.9691 92.917 16.9691C94.9402 16.9691 95.7224 15.6294 95.7224 13.9546V12.7584Z" fill="#434343"/>
<path d="M106 13.0694L110.289 6.99247H114.875L110.397 13.2847L115.063 19.7205H110.451L106 13.5V19.7205H101.684V0.628465L106 0.269592" fill="#F40009"/>
<path d="M106 13.0694L110.289 6.99247H114.875L110.397 13.2847L115.063 19.7205H110.451L106 13.5V19.7205H101.684V0.628465L106 0.269592" fill="#434343"/>
</svg>
