<svg width="112" height="32" viewBox="0 0 112 32" fill="none" xmlns="http://www.w3.org/2000/svg">
<path d="M58.5774 8.03898H55.2462L53.3674 10.741H56.6969L58.5774 8.03898ZM67.219 15.1483C65.474 15.2764 62.3907 16.661 60.7115 19.6862C59.0322 22.7115 59.0261 24.579 59.0261 24.579C59.0261 24.579 59.9117 23.7179 61.2694 22.8163C62.6271 21.9146 63.6375 21.5943 63.6375 21.5943C63.6375 21.5943 63.8894 20.4836 64.5165 19.3219C65.1262 18.1919 66.0937 17.0154 67.2909 16.7485C69.7176 16.2067 68.5555 20.1351 66.7731 22.6966C65.8151 24.0733 62.417 28.0299 59.4915 28.0299C56.566 28.0299 56.0014 25.5281 56.6184 23.189C57.2348 20.8503 58.0881 17.879 62.3562 12.48C66.6243 7.08099 71.2441 3.88025 73.9183 2.53519C76.6649 1.15455 77.784 1.7596 77.784 1.7596C77.784 1.7596 74.2778 3.6751 72.283 5.97963C70.3758 8.18234 69.2377 10.6609 70.1228 11.8754C70.9655 13.0326 73.9361 13.0544 77.2071 8.86549C80.4358 4.73048 79.6204 2.27172 79.6204 2.27172C79.6204 2.27172 80.0106 2.15901 80.2725 2.12787C81.847 1.94201 83.1083 2.31028 85.0612 3.19857C87.1072 4.12938 89.0702 5.62224 91.7599 6.84371C92.5697 6.05675 93.471 5.22085 94.419 4.40522C90.7929 2.8397 88.0402 0.608324 84.4838 0.394282C81.3883 0.208416 78.9477 1.20893 78.9477 1.20893C78.9477 1.20893 78.0036 0.0685231 75.0909 0.440748C72.1782 0.813468 63.2045 4.14125 55.5694 14.9857C48.6662 24.7906 51.9188 30.4096 56.8809 30.3453C62.2598 30.2751 67.3767 24.9695 69.1084 20.5943C70.8401 16.219 68.7935 15.0332 67.219 15.1483ZM77.7784 6.03747C76.8744 7.99202 75.5435 9.35784 74.2337 10.4009C72.5539 11.739 71.632 11.694 71.233 11.4251C70.1908 10.7212 71.5891 8.06667 74.0164 5.69293C76.4336 3.32858 78.5147 2.59303 78.5147 2.59303C78.5147 2.62071 78.8608 3.69389 77.7784 6.03747ZM107.732 3.18721C105.27 4.59158 101.858 5.86347 98.5824 5.58319C97.7541 6.34593 96.8657 7.22483 95.9745 8.18629C101.659 9.18087 106.632 6.05724 109.279 3.39581C110.931 1.73637 111.746 0.254883 111.746 0.254883C111.746 0.254883 110.169 1.79618 107.732 3.18721Z" fill="#F40009"/>
<path d="M58.5774 8.03898H55.2462L53.3674 10.741H56.6969L58.5774 8.03898ZM67.219 15.1483C65.474 15.2764 62.3907 16.661 60.7115 19.6862C59.0322 22.7115 59.0261 24.579 59.0261 24.579C59.0261 24.579 59.9117 23.7179 61.2694 22.8163C62.6271 21.9146 63.6375 21.5943 63.6375 21.5943C63.6375 21.5943 63.8894 20.4836 64.5165 19.3219C65.1262 18.1919 66.0937 17.0154 67.2909 16.7485C69.7176 16.2067 68.5555 20.1351 66.7731 22.6966C65.8151 24.0733 62.417 28.0299 59.4915 28.0299C56.566 28.0299 56.0014 25.5281 56.6184 23.189C57.2348 20.8503 58.0881 17.879 62.3562 12.48C66.6243 7.08099 71.2441 3.88025 73.9183 2.53519C76.6649 1.15455 77.784 1.7596 77.784 1.7596C77.784 1.7596 74.2778 3.6751 72.283 5.97963C70.3758 8.18234 69.2377 10.6609 70.1228 11.8754C70.9655 13.0326 73.9361 13.0544 77.2071 8.86549C80.4358 4.73048 79.6204 2.27172 79.6204 2.27172C79.6204 2.27172 80.0106 2.15901 80.2725 2.12787C81.847 1.94201 83.1083 2.31028 85.0612 3.19857C87.1072 4.12938 89.0702 5.62224 91.7599 6.84371C92.5697 6.05675 93.471 5.22085 94.419 4.40522C90.7929 2.8397 88.0402 0.608324 84.4838 0.394282C81.3883 0.208416 78.9477 1.20893 78.9477 1.20893C78.9477 1.20893 78.0036 0.0685231 75.0909 0.440748C72.1782 0.813468 63.2045 4.14125 55.5694 14.9857C48.6662 24.7906 51.9188 30.4096 56.8809 30.3453C62.2598 30.2751 67.3767 24.9695 69.1084 20.5943C70.8401 16.219 68.7935 15.0332 67.219 15.1483ZM77.7784 6.03747C76.8744 7.99202 75.5435 9.35784 74.2337 10.4009C72.5539 11.739 71.632 11.694 71.233 11.4251C70.1908 10.7212 71.5891 8.06667 74.0164 5.69293C76.4336 3.32858 78.5147 2.59303 78.5147 2.59303C78.5147 2.62071 78.8608 3.69389 77.7784 6.03747ZM107.732 3.18721C105.27 4.59158 101.858 5.86347 98.5824 5.58319C97.7541 6.34593 96.8657 7.22483 95.9745 8.18629C101.659 9.18087 106.632 6.05724 109.279 3.39581C110.931 1.73637 111.746 0.254883 111.746 0.254883C111.746 0.254883 110.169 1.79618 107.732 3.18721Z" fill="#434343"/>
<path d="M105.043 15.5097H101.54L100.971 16.2897C100.971 16.2897 100.256 15.1464 99.0461 15.1647C96.9728 15.1963 94.8978 16.6002 92.4867 19.0352C90.7194 20.8192 87.79 24.7911 87.79 24.7911C87.79 24.7911 85.5423 27.8633 84.4053 27.6226C82.4668 27.2118 86.0322 20.8504 86.0322 20.8504C86.0322 20.8504 87.9065 19.8237 90.3354 18.011C91.8648 16.8701 93.6243 15.3006 95.2417 13.8458C96.7125 12.5225 98.4459 10.7256 100.093 8.75726C99.6715 8.81658 99.239 8.85661 98.7981 8.87589C97.3206 10.604 95.7433 12.1508 94.4018 13.3802C92.4048 15.2101 90.5678 16.7074 89.233 17.6625C87.9539 18.577 87.1335 18.9887 87.1335 18.9887C87.1335 18.9887 89.5735 14.5443 93.6404 9.63369C97.7074 4.72358 103.402 0.161972 102.955 2.32612C102.828 2.94748 102.392 3.83874 101.735 4.8966C102.198 4.81108 102.647 4.7043 103.081 4.5827C104.061 2.7888 104.394 1.31028 103.663 0.883189C100.679 -0.859793 93.0892 6.35238 89.2843 10.5413C85.4798 14.7302 82.0366 21.1316 82.0366 21.1316C82.0366 21.1316 81.4413 21.3531 80.7831 21.4638C80.3679 21.534 80.1907 21.5187 80.1227 21.495C80.0887 21.4826 80.0848 21.4618 80.0848 21.4618C80.0848 21.4618 83.4316 15.9126 80.0051 15.1765C76.6983 14.4667 70.9689 19.8924 68.9318 23.6665C67.534 26.2558 66.7453 29.5154 69.1425 30.2914C71.7386 31.1323 76.1483 26.9286 77.1849 25.7071C78.2216 24.4851 79.5157 22.4535 79.5157 22.4535C79.5157 22.4535 80.1489 22.4238 80.495 22.3788C81.1571 22.2923 81.467 22.2201 81.467 22.2201C81.467 22.2201 81.0378 23.2172 80.5736 24.4812C79.708 26.8381 78.9272 30.2104 82.0433 30.369C84.0285 30.4694 86.9412 27.2894 86.9412 27.2894C86.9412 27.2894 86.1576 30.1169 88.7342 30.369C90.6364 30.5549 93.4047 27.9483 93.4047 27.9483C93.4047 27.9483 92.8016 30.1941 94.73 30.3918C96.3809 30.5613 98.7245 28.8446 100.646 26.9557C102.745 24.8934 104.354 22.6349 104.354 22.6349H103.134C103.134 22.6349 100.434 26.2701 98.5378 27.2429C96.9812 28.0418 97.5145 26.762 97.9866 26.0912C98.5072 25.3512 105.041 15.5097 105.041 15.5102L105.043 15.5097ZM78.3542 22.3566C78.3063 22.4539 77.4296 23.8069 76.4916 24.8707C75.4811 26.017 73.6313 27.7422 72.5194 27.3774C70.7811 26.807 72.6938 23.448 73.9445 21.8187C75.1952 20.1895 75.3373 20.0792 75.3724 20.0367C75.4075 19.9942 75.4427 19.9551 75.4733 20.0056C75.504 20.056 75.9019 20.7253 76.6878 21.3061C77.477 21.8894 78.2361 22.1974 78.2974 22.2167C78.3587 22.236 78.4027 22.2592 78.3542 22.3561V22.3566ZM79.1362 21.146C79.0264 21.3081 78.9478 21.316 78.7198 21.2621C78.3186 21.1657 76.656 20.4841 76.6688 18.9719C76.6805 17.4984 79.0225 16.0549 79.941 16.6719C80.7982 17.2472 80.3885 18.7184 80.0653 19.4687C79.7426 20.2186 79.2081 21.0397 79.1362 21.146ZM95.0494 24.7911C94.5868 25.3536 94.2 25.8618 93.8511 26.2187C93.1054 26.9824 92.6188 27.3379 92.1852 27.4318C91.9668 27.4787 91.6959 27.4674 91.5164 27.371C90.8799 27.0274 91.3258 25.6898 92.4338 23.8914C93.4476 22.2478 94.6191 20.6032 96.5448 18.7099C98.4782 16.8093 99.2178 16.7178 99.759 16.7396C100.214 16.7569 100.279 17.1815 100.279 17.1815C100.279 17.1815 100.247 17.2799 100.174 17.3911C99.536 18.3723 96.3213 23.2444 95.0489 24.7911H95.0494ZM43.3799 27.1688C41.2558 26.0047 38.531 25.2577 35.4004 25.2335C27.3356 25.1712 18.5547 28.6463 12.6073 28.6933C5.5926 28.7477 5.24314 23.9611 5.76315 21.3328C6.88229 15.6704 11.4107 10.2684 14.3223 7.42011C17.2344 4.57183 20.2858 2.36171 22.8228 1.7967C25.3599 1.23169 25.1213 2.94303 24.8109 3.17685C24.4904 3.18278 23.8757 3.24407 23.5268 3.45812C22.9806 3.79228 22.251 4.40425 22.2053 5.37461C22.1267 6.86944 24.3048 7.13143 25.8793 4.00138C26.9533 1.8664 25.2501 0.417537 23.8355 0.278138C21.8954 0.0863409 18.9304 0.684471 15.3912 2.7018C9.23149 6.21248 0.992293 14.0084 0.782175 22.6581C0.662347 27.5924 4.29678 30.369 9.28332 30.369C14.2699 30.369 21.0399 27.6607 27.6505 27.5914C31.7437 27.5603 34.3927 28.8327 35.7342 30.9049C35.7342 30.9049 37.0674 28.938 40.0364 28.8327C42.9736 28.7279 46.2073 29.458 48.8619 31.113C47.9763 29.978 45.4727 28.3156 43.3793 27.1688H43.3799Z" fill="#F40009"/>
<path d="M105.043 15.5097H101.54L100.971 16.2897C100.971 16.2897 100.256 15.1464 99.0461 15.1647C96.9728 15.1963 94.8978 16.6002 92.4867 19.0352C90.7194 20.8192 87.79 24.7911 87.79 24.7911C87.79 24.7911 85.5423 27.8633 84.4053 27.6226C82.4668 27.2118 86.0322 20.8504 86.0322 20.8504C86.0322 20.8504 87.9065 19.8237 90.3354 18.011C91.8648 16.8701 93.6243 15.3006 95.2417 13.8458C96.7125 12.5225 98.4459 10.7256 100.093 8.75726C99.6715 8.81658 99.239 8.85661 98.7981 8.87589C97.3206 10.604 95.7433 12.1508 94.4018 13.3802C92.4048 15.2101 90.5678 16.7074 89.233 17.6625C87.9539 18.577 87.1335 18.9887 87.1335 18.9887C87.1335 18.9887 89.5735 14.5443 93.6404 9.63369C97.7074 4.72358 103.402 0.161972 102.955 2.32612C102.828 2.94748 102.392 3.83874 101.735 4.8966C102.198 4.81108 102.647 4.7043 103.081 4.5827C104.061 2.7888 104.394 1.31028 103.663 0.883189C100.679 -0.859793 93.0892 6.35238 89.2843 10.5413C85.4798 14.7302 82.0366 21.1316 82.0366 21.1316C82.0366 21.1316 81.4413 21.3531 80.7831 21.4638C80.3679 21.534 80.1907 21.5187 80.1227 21.495C80.0887 21.4826 80.0848 21.4618 80.0848 21.4618C80.0848 21.4618 83.4316 15.9126 80.0051 15.1765C76.6983 14.4667 70.9689 19.8924 68.9318 23.6665C67.534 26.2558 66.7453 29.5154 69.1425 30.2914C71.7386 31.1323 76.1483 26.9286 77.1849 25.7071C78.2216 24.4851 79.5157 22.4535 79.5157 22.4535C79.5157 22.4535 80.1489 22.4238 80.495 22.3788C81.1571 22.2923 81.467 22.2201 81.467 22.2201C81.467 22.2201 81.0378 23.2172 80.5736 24.4812C79.708 26.8381 78.9272 30.2104 82.0433 30.369C84.0285 30.4694 86.9412 27.2894 86.9412 27.2894C86.9412 27.2894 86.1576 30.1169 88.7342 30.369C90.6364 30.5549 93.4047 27.9483 93.4047 27.9483C93.4047 27.9483 92.8016 30.1941 94.73 30.3918C96.3809 30.5613 98.7245 28.8446 100.646 26.9557C102.745 24.8934 104.354 22.6349 104.354 22.6349H103.134C103.134 22.6349 100.434 26.2701 98.5378 27.2429C96.9812 28.0418 97.5145 26.762 97.9866 26.0912C98.5072 25.3512 105.041 15.5097 105.041 15.5102L105.043 15.5097ZM78.3542 22.3566C78.3063 22.4539 77.4296 23.8069 76.4916 24.8707C75.4811 26.017 73.6313 27.7422 72.5194 27.3774C70.7811 26.807 72.6938 23.448 73.9445 21.8187C75.1952 20.1895 75.3373 20.0792 75.3724 20.0367C75.4075 19.9942 75.4427 19.9551 75.4733 20.0056C75.504 20.056 75.9019 20.7253 76.6878 21.3061C77.477 21.8894 78.2361 22.1974 78.2974 22.2167C78.3587 22.236 78.4027 22.2592 78.3542 22.3561V22.3566ZM79.1362 21.146C79.0264 21.3081 78.9478 21.316 78.7198 21.2621C78.3186 21.1657 76.656 20.4841 76.6688 18.9719C76.6805 17.4984 79.0225 16.0549 79.941 16.6719C80.7982 17.2472 80.3885 18.7184 80.0653 19.4687C79.7426 20.2186 79.2081 21.0397 79.1362 21.146ZM95.0494 24.7911C94.5868 25.3536 94.2 25.8618 93.8511 26.2187C93.1054 26.9824 92.6188 27.3379 92.1852 27.4318C91.9668 27.4787 91.6959 27.4674 91.5164 27.371C90.8799 27.0274 91.3258 25.6898 92.4338 23.8914C93.4476 22.2478 94.6191 20.6032 96.5448 18.7099C98.4782 16.8093 99.2178 16.7178 99.759 16.7396C100.214 16.7569 100.279 17.1815 100.279 17.1815C100.279 17.1815 100.247 17.2799 100.174 17.3911C99.536 18.3723 96.3213 23.2444 95.0489 24.7911H95.0494ZM43.3799 27.1688C41.2558 26.0047 38.531 25.2577 35.4004 25.2335C27.3356 25.1712 18.5547 28.6463 12.6073 28.6933C5.5926 28.7477 5.24314 23.9611 5.76315 21.3328C6.88229 15.6704 11.4107 10.2684 14.3223 7.42011C17.2344 4.57183 20.2858 2.36171 22.8228 1.7967C25.3599 1.23169 25.1213 2.94303 24.8109 3.17685C24.4904 3.18278 23.8757 3.24407 23.5268 3.45812C22.9806 3.79228 22.251 4.40425 22.2053 5.37461C22.1267 6.86944 24.3048 7.13143 25.8793 4.00138C26.9533 1.8664 25.2501 0.417537 23.8355 0.278138C21.8954 0.0863409 18.9304 0.684471 15.3912 2.7018C9.23149 6.21248 0.992293 14.0084 0.782175 22.6581C0.662347 27.5924 4.29678 30.369 9.28332 30.369C14.2699 30.369 21.0399 27.6607 27.6505 27.5914C31.7437 27.5603 34.3927 28.8327 35.7342 30.9049C35.7342 30.9049 37.0674 28.938 40.0364 28.8327C42.9736 28.7279 46.2073 29.458 48.8619 31.113C47.9763 29.978 45.4727 28.3156 43.3793 27.1688H43.3799Z" fill="#434343"/>
<path d="M25.0137 7.73649C21.6329 6.97227 16.0182 12.0766 13.6523 16.2309C12.1931 18.7935 11.5533 22.014 14.1511 22.8519C16.7489 23.6898 21.1563 19.489 22.193 18.2675C23.2296 17.0456 24.9262 14.5982 24.9262 14.5982C24.9262 14.5982 25.4467 14.5092 25.7878 14.439C26.1289 14.3688 26.6801 14.2294 26.6801 14.2294C26.6801 14.2294 26.0409 15.2398 25.464 16.2754C24.7802 17.5033 22.922 21.5909 26.5096 22.8168C29.9373 23.9878 34.8168 19.1044 35.0732 19.012C35.0732 19.012 33.6207 22.3398 35.8769 22.8519C38.3526 23.4134 41.0657 20.6003 41.0657 20.6003C41.0657 20.6003 40.4944 22.712 42.4234 22.9102C45.8778 23.2646 51.9879 15.4282 51.9879 15.4282H50.7674C50.7674 15.4282 47.658 18.9769 46.1626 19.71C44.6673 20.4431 45.2051 19.1405 45.6114 18.5582C46.1297 17.8172 52.7353 8.02764 52.7353 8.02764H49.2324L48.8261 8.5976C48.8261 8.5976 48.1044 7.62032 46.8977 7.69002C43.387 7.89319 39.2098 12.8562 37.3728 15.0436C35.5363 17.2314 31.5742 21.4085 29.488 20.664C27.2146 19.8523 29.4752 16.1261 30.9706 13.9383C32.5986 11.5566 35.4839 9.19771 36.6248 9.17942C38.0288 9.15618 37.4775 10.2847 37.4775 10.2847C37.4775 10.2847 36.4281 10.1686 35.6673 11.0178C35.1289 11.6184 34.683 12.4953 35.1947 12.9724C36.0212 13.743 37.0974 12.9605 37.74 12.0875C39.7437 9.36726 38.2779 7.93372 36.7039 7.72462C33.351 7.27825 30.2622 11.0989 27.9141 12.5186C26.285 13.5028 25.6045 13.4261 25.6045 13.4261C25.6045 13.4261 28.4308 8.50862 25.0142 7.73599L25.0137 7.73649ZM40.1929 16.5335C41.2067 14.8893 42.5878 13.3021 44.3852 11.3124C46.1827 9.32277 47.0772 9.16162 47.6184 9.18337C48.0737 9.20117 48.1384 9.6253 48.1384 9.6253C48.1384 9.6253 44.2331 15.6605 42.8163 17.3827C42.3537 17.9452 41.958 18.4218 41.6091 18.7792C40.8634 19.5429 40.3217 19.9122 39.9037 20.0041C39.6852 20.0516 39.4143 20.0397 39.2343 19.9428C38.5978 19.5992 39.0832 18.3313 40.1924 16.5335H40.1929ZM23.6187 14.5749C23.5702 14.6718 22.4549 16.3076 21.5175 17.3713C20.5076 18.5177 18.641 20.2498 17.5291 19.885C15.7908 19.3145 17.6451 15.9788 18.8957 14.35C20.1464 12.7207 20.3298 12.5112 20.3655 12.4691C20.4006 12.4261 20.4351 12.3871 20.4658 12.438C20.4964 12.4884 20.8944 13.2141 21.756 13.7025C22.6177 14.1914 23.5011 14.4163 23.5624 14.4355C23.6237 14.4548 23.6677 14.4786 23.6192 14.5749H23.6187ZM25.0728 12.0287C24.7495 12.7796 24.4608 13.2526 24.4012 13.3644C24.3053 13.5433 24.0651 13.486 24.0651 13.486C23.7914 13.4751 21.6641 13.0445 21.6763 11.5324C21.688 10.0588 24.0305 8.61539 24.9485 9.23231C25.8057 9.8077 25.396 11.2788 25.0728 12.0287ZM102.407 28.5752C102.202 28.4723 101.975 28.4214 101.725 28.4214C101.474 28.4214 101.247 28.4728 101.042 28.5752C100.838 28.678 100.677 28.8174 100.56 28.9948C100.443 29.1718 100.384 29.3646 100.384 29.5722C100.384 29.7798 100.442 29.9761 100.56 30.152C100.677 30.3275 100.838 30.4669 101.042 30.5693C101.247 30.6721 101.474 30.723 101.725 30.723C101.975 30.723 102.202 30.6716 102.407 30.5693C102.611 30.4669 102.772 30.3275 102.889 30.152C103.007 29.9766 103.066 29.7833 103.066 29.5722C103.066 29.3611 103.007 29.1718 102.889 28.9948C102.772 28.8179 102.611 28.678 102.407 28.5752ZM102.647 30.0487C102.558 30.1891 102.434 30.2994 102.274 30.3799C102.114 30.46 101.93 30.5001 101.725 30.5001C101.519 30.5001 101.336 30.46 101.176 30.3799C101.016 30.2999 100.891 30.1896 100.802 30.0487C100.714 29.9083 100.669 29.7492 100.669 29.5722C100.669 29.3952 100.714 29.2405 100.802 29.1001C100.891 28.9597 101.016 28.8495 101.178 28.7689C101.34 28.6884 101.522 28.6488 101.725 28.6488C101.928 28.6488 102.11 28.6889 102.271 28.7689C102.433 28.849 102.558 28.9592 102.647 29.1001C102.736 29.2405 102.78 29.3982 102.78 29.5722C102.78 29.7462 102.736 29.9083 102.647 30.0487Z" fill="#F40009"/>
<path d="M25.0137 7.73649C21.6329 6.97227 16.0182 12.0766 13.6523 16.2309C12.1931 18.7935 11.5533 22.014 14.1511 22.8519C16.7489 23.6898 21.1563 19.489 22.193 18.2675C23.2296 17.0456 24.9262 14.5982 24.9262 14.5982C24.9262 14.5982 25.4467 14.5092 25.7878 14.439C26.1289 14.3688 26.6801 14.2294 26.6801 14.2294C26.6801 14.2294 26.0409 15.2398 25.464 16.2754C24.7802 17.5033 22.922 21.5909 26.5096 22.8168C29.9373 23.9878 34.8168 19.1044 35.0732 19.012C35.0732 19.012 33.6207 22.3398 35.8769 22.8519C38.3526 23.4134 41.0657 20.6003 41.0657 20.6003C41.0657 20.6003 40.4944 22.712 42.4234 22.9102C45.8778 23.2646 51.9879 15.4282 51.9879 15.4282H50.7674C50.7674 15.4282 47.658 18.9769 46.1626 19.71C44.6673 20.4431 45.2051 19.1405 45.6114 18.5582C46.1297 17.8172 52.7353 8.02764 52.7353 8.02764H49.2324L48.8261 8.5976C48.8261 8.5976 48.1044 7.62032 46.8977 7.69002C43.387 7.89319 39.2098 12.8562 37.3728 15.0436C35.5363 17.2314 31.5742 21.4085 29.488 20.664C27.2146 19.8523 29.4752 16.1261 30.9706 13.9383C32.5986 11.5566 35.4839 9.19771 36.6248 9.17942C38.0288 9.15618 37.4775 10.2847 37.4775 10.2847C37.4775 10.2847 36.4281 10.1686 35.6673 11.0178C35.1289 11.6184 34.683 12.4953 35.1947 12.9724C36.0212 13.743 37.0974 12.9605 37.74 12.0875C39.7437 9.36726 38.2779 7.93372 36.7039 7.72462C33.351 7.27825 30.2622 11.0989 27.9141 12.5186C26.285 13.5028 25.6045 13.4261 25.6045 13.4261C25.6045 13.4261 28.4308 8.50862 25.0142 7.73599L25.0137 7.73649ZM40.1929 16.5335C41.2067 14.8893 42.5878 13.3021 44.3852 11.3124C46.1827 9.32277 47.0772 9.16162 47.6184 9.18337C48.0737 9.20117 48.1384 9.6253 48.1384 9.6253C48.1384 9.6253 44.2331 15.6605 42.8163 17.3827C42.3537 17.9452 41.958 18.4218 41.6091 18.7792C40.8634 19.5429 40.3217 19.9122 39.9037 20.0041C39.6852 20.0516 39.4143 20.0397 39.2343 19.9428C38.5978 19.5992 39.0832 18.3313 40.1924 16.5335H40.1929ZM23.6187 14.5749C23.5702 14.6718 22.4549 16.3076 21.5175 17.3713C20.5076 18.5177 18.641 20.2498 17.5291 19.885C15.7908 19.3145 17.6451 15.9788 18.8957 14.35C20.1464 12.7207 20.3298 12.5112 20.3655 12.4691C20.4006 12.4261 20.4351 12.3871 20.4658 12.438C20.4964 12.4884 20.8944 13.2141 21.756 13.7025C22.6177 14.1914 23.5011 14.4163 23.5624 14.4355C23.6237 14.4548 23.6677 14.4786 23.6192 14.5749H23.6187ZM25.0728 12.0287C24.7495 12.7796 24.4608 13.2526 24.4012 13.3644C24.3053 13.5433 24.0651 13.486 24.0651 13.486C23.7914 13.4751 21.6641 13.0445 21.6763 11.5324C21.688 10.0588 24.0305 8.61539 24.9485 9.23231C25.8057 9.8077 25.396 11.2788 25.0728 12.0287ZM102.407 28.5752C102.202 28.4723 101.975 28.4214 101.725 28.4214C101.474 28.4214 101.247 28.4728 101.042 28.5752C100.838 28.678 100.677 28.8174 100.56 28.9948C100.443 29.1718 100.384 29.3646 100.384 29.5722C100.384 29.7798 100.442 29.9761 100.56 30.152C100.677 30.3275 100.838 30.4669 101.042 30.5693C101.247 30.6721 101.474 30.723 101.725 30.723C101.975 30.723 102.202 30.6716 102.407 30.5693C102.611 30.4669 102.772 30.3275 102.889 30.152C103.007 29.9766 103.066 29.7833 103.066 29.5722C103.066 29.3611 103.007 29.1718 102.889 28.9948C102.772 28.8179 102.611 28.678 102.407 28.5752ZM102.647 30.0487C102.558 30.1891 102.434 30.2994 102.274 30.3799C102.114 30.46 101.93 30.5001 101.725 30.5001C101.519 30.5001 101.336 30.46 101.176 30.3799C101.016 30.2999 100.891 30.1896 100.802 30.0487C100.714 29.9083 100.669 29.7492 100.669 29.5722C100.669 29.3952 100.714 29.2405 100.802 29.1001C100.891 28.9597 101.016 28.8495 101.178 28.7689C101.34 28.6884 101.522 28.6488 101.725 28.6488C101.928 28.6488 102.11 28.6889 102.271 28.7689C102.433 28.849 102.558 28.9592 102.647 29.1001C102.736 29.2405 102.78 29.3982 102.78 29.5722C102.78 29.7462 102.736 29.9083 102.647 30.0487Z" fill="#434343"/>
<path d="M102.228 29.5533C102.266 29.4984 102.285 29.4372 102.285 29.37C102.285 29.277 102.251 29.1995 102.183 29.1362C102.115 29.0729 102.024 29.0413 101.91 29.0413H101.23V30.0826H101.53V29.703H101.757L102.033 30.0826H102.376L102.067 29.6778C102.136 29.6497 102.191 29.6082 102.228 29.5533ZM101.943 29.4436C101.921 29.4619 101.891 29.4708 101.853 29.4708H101.53V29.2686H101.853C101.891 29.2686 101.921 29.278 101.943 29.2958C101.965 29.3141 101.977 29.3388 101.977 29.3695C101.977 29.4001 101.965 29.4248 101.943 29.4431V29.4436Z" fill="#F40009"/>
<path d="M102.228 29.5533C102.266 29.4984 102.285 29.4372 102.285 29.37C102.285 29.277 102.251 29.1995 102.183 29.1362C102.115 29.0729 102.024 29.0413 101.91 29.0413H101.23V30.0826H101.53V29.703H101.757L102.033 30.0826H102.376L102.067 29.6778C102.136 29.6497 102.191 29.6082 102.228 29.5533ZM101.943 29.4436C101.921 29.4619 101.891 29.4708 101.853 29.4708H101.53V29.2686H101.853C101.891 29.2686 101.921 29.278 101.943 29.2958C101.965 29.3141 101.977 29.3388 101.977 29.3695C101.977 29.4001 101.965 29.4248 101.943 29.4431V29.4436Z" fill="#434343"/>
</svg>
