<svg width="116" height="23" viewBox="0 0 116 23" fill="none" xmlns="http://www.w3.org/2000/svg">
<mask id="mask0_5_84" style="mask-type:alpha" maskUnits="userSpaceOnUse" x="0" y="0" width="116" height="23">
<path d="M115.475 10.0979V8.30381H112.963V5.51467L112.878 5.53776L110.519 6.17803L110.472 6.19056V8.30391H106.748V7.12659C106.748 6.5784 106.886 6.15889 107.159 5.87911C107.429 5.6027 107.816 5.46217 108.31 5.46217C108.664 5.46217 109.032 5.53628 109.401 5.68243L109.494 5.71914V3.82972L109.45 3.81551C109.106 3.70557 108.637 3.65021 108.055 3.65021C107.323 3.65021 106.657 3.79162 106.076 4.07189C105.495 4.35255 105.038 4.75321 104.718 5.26263C104.399 5.77145 104.237 6.35912 104.237 7.00946V8.30381H102.488V10.0979H104.237V17.6561H106.748V10.0979H110.472V14.901C110.472 16.8792 111.524 17.8816 113.599 17.8816C113.94 17.8816 114.299 17.8462 114.665 17.7768C115.038 17.7056 115.292 17.6344 115.442 17.5584L115.475 17.5411V15.7304L115.373 15.7903C115.236 15.8708 115.067 15.9366 114.868 15.9856C114.668 16.0354 114.501 16.0604 114.372 16.0604C113.886 16.0604 113.526 15.9442 113.303 15.715C113.077 15.4837 112.963 15.0792 112.963 14.5133V10.0979H115.475ZM96.8808 16.0607C95.9694 16.0607 95.2509 15.7926 94.7445 15.2647C94.235 14.734 93.9769 13.9775 93.9769 13.0163C93.9769 12.0246 94.235 11.2485 94.7447 10.7085C95.2514 10.172 95.9631 9.89975 96.8604 9.89975C97.731 9.89975 98.4241 10.1598 98.9206 10.673C99.4195 11.189 99.6727 11.9589 99.6727 12.9622C99.6727 13.9777 99.4346 14.7578 98.9651 15.2797C98.4988 15.7976 97.7976 16.0607 96.8808 16.0607ZM96.9924 8.07851C95.2537 8.07851 93.8726 8.53039 92.8879 9.42162C91.9039 10.3129 91.405 11.5464 91.405 13.0881C91.405 14.5524 91.892 15.7302 92.8527 16.5882C93.8133 17.4466 95.1207 17.8814 96.7382 17.8814C98.4237 17.8814 99.7772 17.4232 100.761 16.5197C101.746 15.6171 102.244 14.3953 102.244 12.8896C102.244 11.4024 101.776 10.2158 100.853 9.36349C99.9295 8.51076 98.6304 8.07851 96.9924 8.07851ZM87.3565 8.07851C86.1738 8.07851 85.1954 8.34684 84.448 8.87589C83.6961 9.4081 83.3147 10.1061 83.3147 10.9507C83.3147 11.3898 83.397 11.7798 83.559 12.1106C83.722 12.4425 83.9743 12.7347 84.3094 12.9799C84.642 13.2232 85.1554 13.478 85.8356 13.7372C86.4075 13.9459 86.834 14.1225 87.105 14.2616C87.3698 14.398 87.5577 14.5351 87.6639 14.6686C87.767 14.7993 87.8193 14.9781 87.8193 15.1988C87.8193 15.8271 87.2888 16.1328 86.1971 16.1328C85.7922 16.1328 85.3304 16.0578 84.8244 15.91C84.3221 15.7644 83.848 15.5512 83.4187 15.2778L83.3145 15.2115V17.3556L83.3527 17.3714C83.708 17.5169 84.156 17.6395 84.6839 17.7361C85.2109 17.8327 85.6897 17.8818 86.1056 17.8818C87.389 17.8818 88.4226 17.6122 89.1767 17.08C89.9357 16.5441 90.3203 15.8297 90.3203 14.9558C90.3203 14.3254 90.1133 13.7848 89.7051 13.3488C89.2998 12.9164 88.5963 12.5194 87.615 12.1684C86.8333 11.8901 86.3324 11.6591 86.1258 11.4818C85.9267 11.3105 85.8255 11.0682 85.8255 10.7614C85.8255 10.4894 85.9504 10.2715 86.2066 10.095C86.4648 9.91771 86.8243 9.82751 87.2752 9.82751C87.6936 9.82751 88.1216 9.88613 88.5473 10.001C88.9727 10.1159 89.3463 10.2697 89.6582 10.4579L89.7608 10.5201V8.48618L89.7214 8.47118C89.4337 8.36174 89.0542 8.26809 88.5934 8.1921C88.1346 8.11661 87.7185 8.07851 87.3565 8.07851ZM76.7688 16.0607C75.8576 16.0607 75.1388 15.7926 74.6326 15.2647C74.123 14.734 73.8653 13.9777 73.8653 13.0163C73.8653 12.0246 74.1233 11.2485 74.6331 10.7085C75.1394 10.172 75.8509 9.89975 76.7486 9.89975C77.6189 9.89975 78.312 10.1598 78.8086 10.673C79.3076 11.189 79.5608 11.9589 79.5608 12.9622C79.5608 13.9777 79.3225 14.7578 78.853 15.2797C78.3867 15.7976 77.6858 16.0607 76.7688 16.0607ZM76.8807 8.07851C75.1415 8.07851 73.7603 8.53039 72.7762 9.42162C71.7921 10.3129 71.2929 11.5464 71.2929 13.0881C71.2929 14.553 71.7802 15.7302 72.7409 16.5882C73.7016 17.4466 75.0089 17.8814 76.6263 17.8814C78.3116 17.8814 79.6655 17.4232 80.6497 16.5197C81.6337 15.6171 82.1325 14.3953 82.1325 12.8896C82.1325 11.4024 81.6645 10.2158 80.7411 9.36349C79.8172 8.51076 78.5183 8.07851 76.8807 8.07851ZM67.4814 9.92343V8.30381H65.001V17.6559H67.4814V12.872C67.4814 12.0585 67.6893 11.3902 68.0997 10.8854C68.5048 10.3867 69.0446 10.1339 69.7038 10.1339C69.9272 10.1339 70.178 10.1666 70.4496 10.2312C70.7184 10.2955 70.9131 10.3652 71.028 10.4387L71.1322 10.5057V8.28783L71.0921 8.27253C70.8611 8.18549 70.5343 8.14157 70.1208 8.14157C69.4975 8.14157 68.9397 8.31921 68.4619 8.66895C68.0426 8.97635 67.7395 9.39784 67.5077 9.92343H67.4814ZM60.5591 8.07851C59.4212 8.07851 58.4062 8.29493 57.5429 8.72155C56.6778 9.14915 56.0088 9.75962 55.5536 10.5359C55.1004 11.3103 54.8703 12.2148 54.8703 13.2236C54.8703 14.1072 55.0934 14.9181 55.5343 15.6328C55.9755 16.3486 56.5999 16.9087 57.3904 17.2971C58.1797 17.685 59.092 17.8817 60.1021 17.8817C61.2808 17.8817 62.2872 17.6727 63.0941 17.2605L63.1267 17.2439V15.2285L63.0225 15.296C62.657 15.5321 62.2485 15.7206 61.809 15.8564C61.3706 15.9921 60.9709 16.0607 60.6204 16.0607C59.6472 16.0607 58.8659 15.7906 58.2988 15.2581C57.7304 14.7249 57.4422 13.9761 57.4422 13.034C57.4422 12.0859 57.7428 11.318 58.335 10.7513C58.9255 10.1863 59.7083 9.89975 60.6614 9.89975C61.4766 9.89975 62.2711 10.1446 63.0227 10.6281L63.1267 10.6952V8.57155L63.0931 8.55477C62.8103 8.41434 62.4245 8.29838 61.9456 8.21046C61.4687 8.12272 61.0023 8.07851 60.5591 8.07851ZM53.162 8.30391H50.6817V17.6559H53.162V8.30391ZM51.9472 4.31989C51.539 4.31989 51.1829 4.44314 50.8904 4.68739C50.5967 4.93233 50.4477 5.24072 50.4477 5.60467C50.4477 5.9629 50.5949 6.26566 50.8859 6.50409C51.1749 6.74182 51.5321 6.86232 51.9473 6.86232C52.3625 6.86232 52.721 6.74182 53.0135 6.50448C53.3079 6.26566 53.4572 5.963 53.4572 5.60467C53.4572 5.25345 53.3119 4.94822 53.0256 4.69726C52.7396 4.4468 52.3766 4.31989 51.9472 4.31989ZM45.7586 7.6139V17.6559H48.2899V4.60617H44.7865L40.3333 14.2991L36.0119 4.60617H32.3658V17.6558H34.7445V7.61292H34.8262L39.3896 17.6559H41.1848L45.6769 7.6139H45.7586Z" fill="#F40009"/>
<path d="M115.475 10.0979V8.30381H112.963V5.51467L112.878 5.53776L110.519 6.17803L110.472 6.19056V8.30391H106.748V7.12659C106.748 6.5784 106.886 6.15889 107.159 5.87911C107.429 5.6027 107.816 5.46217 108.31 5.46217C108.664 5.46217 109.032 5.53628 109.401 5.68243L109.494 5.71914V3.82972L109.45 3.81551C109.106 3.70557 108.637 3.65021 108.055 3.65021C107.323 3.65021 106.657 3.79162 106.076 4.07189C105.495 4.35255 105.038 4.75321 104.718 5.26263C104.399 5.77145 104.237 6.35912 104.237 7.00946V8.30381H102.488V10.0979H104.237V17.6561H106.748V10.0979H110.472V14.901C110.472 16.8792 111.524 17.8816 113.599 17.8816C113.94 17.8816 114.299 17.8462 114.665 17.7768C115.038 17.7056 115.292 17.6344 115.442 17.5584L115.475 17.5411V15.7304L115.373 15.7903C115.236 15.8708 115.067 15.9366 114.868 15.9856C114.668 16.0354 114.501 16.0604 114.372 16.0604C113.886 16.0604 113.526 15.9442 113.303 15.715C113.077 15.4837 112.963 15.0792 112.963 14.5133V10.0979H115.475ZM96.8808 16.0607C95.9694 16.0607 95.2509 15.7926 94.7445 15.2647C94.235 14.734 93.9769 13.9775 93.9769 13.0163C93.9769 12.0246 94.235 11.2485 94.7447 10.7085C95.2514 10.172 95.9631 9.89975 96.8604 9.89975C97.731 9.89975 98.4241 10.1598 98.9206 10.673C99.4195 11.189 99.6727 11.9589 99.6727 12.9622C99.6727 13.9777 99.4346 14.7578 98.9651 15.2797C98.4988 15.7976 97.7976 16.0607 96.8808 16.0607ZM96.9924 8.07851C95.2537 8.07851 93.8726 8.53039 92.8879 9.42162C91.9039 10.3129 91.405 11.5464 91.405 13.0881C91.405 14.5524 91.892 15.7302 92.8527 16.5882C93.8133 17.4466 95.1207 17.8814 96.7382 17.8814C98.4237 17.8814 99.7772 17.4232 100.761 16.5197C101.746 15.6171 102.244 14.3953 102.244 12.8896C102.244 11.4024 101.776 10.2158 100.853 9.36349C99.9295 8.51076 98.6304 8.07851 96.9924 8.07851ZM87.3565 8.07851C86.1738 8.07851 85.1954 8.34684 84.448 8.87589C83.6961 9.4081 83.3147 10.1061 83.3147 10.9507C83.3147 11.3898 83.397 11.7798 83.559 12.1106C83.722 12.4425 83.9743 12.7347 84.3094 12.9799C84.642 13.2232 85.1554 13.478 85.8356 13.7372C86.4075 13.9459 86.834 14.1225 87.105 14.2616C87.3698 14.398 87.5577 14.5351 87.6639 14.6686C87.767 14.7993 87.8193 14.9781 87.8193 15.1988C87.8193 15.8271 87.2888 16.1328 86.1971 16.1328C85.7922 16.1328 85.3304 16.0578 84.8244 15.91C84.3221 15.7644 83.848 15.5512 83.4187 15.2778L83.3145 15.2115V17.3556L83.3527 17.3714C83.708 17.5169 84.156 17.6395 84.6839 17.7361C85.2109 17.8327 85.6897 17.8818 86.1056 17.8818C87.389 17.8818 88.4226 17.6122 89.1767 17.08C89.9357 16.5441 90.3203 15.8297 90.3203 14.9558C90.3203 14.3254 90.1133 13.7848 89.7051 13.3488C89.2998 12.9164 88.5963 12.5194 87.615 12.1684C86.8333 11.8901 86.3324 11.6591 86.1258 11.4818C85.9267 11.3105 85.8255 11.0682 85.8255 10.7614C85.8255 10.4894 85.9504 10.2715 86.2066 10.095C86.4648 9.91771 86.8243 9.82751 87.2752 9.82751C87.6936 9.82751 88.1216 9.88613 88.5473 10.001C88.9727 10.1159 89.3463 10.2697 89.6582 10.4579L89.7608 10.5201V8.48618L89.7214 8.47118C89.4337 8.36174 89.0542 8.26809 88.5934 8.1921C88.1346 8.11661 87.7185 8.07851 87.3565 8.07851ZM76.7688 16.0607C75.8576 16.0607 75.1388 15.7926 74.6326 15.2647C74.123 14.734 73.8653 13.9777 73.8653 13.0163C73.8653 12.0246 74.1233 11.2485 74.6331 10.7085C75.1394 10.172 75.8509 9.89975 76.7486 9.89975C77.6189 9.89975 78.312 10.1598 78.8086 10.673C79.3076 11.189 79.5608 11.9589 79.5608 12.9622C79.5608 13.9777 79.3225 14.7578 78.853 15.2797C78.3867 15.7976 77.6858 16.0607 76.7688 16.0607ZM76.8807 8.07851C75.1415 8.07851 73.7603 8.53039 72.7762 9.42162C71.7921 10.3129 71.2929 11.5464 71.2929 13.0881C71.2929 14.553 71.7802 15.7302 72.7409 16.5882C73.7016 17.4466 75.0089 17.8814 76.6263 17.8814C78.3116 17.8814 79.6655 17.4232 80.6497 16.5197C81.6337 15.6171 82.1325 14.3953 82.1325 12.8896C82.1325 11.4024 81.6645 10.2158 80.7411 9.36349C79.8172 8.51076 78.5183 8.07851 76.8807 8.07851ZM67.4814 9.92343V8.30381H65.001V17.6559H67.4814V12.872C67.4814 12.0585 67.6893 11.3902 68.0997 10.8854C68.5048 10.3867 69.0446 10.1339 69.7038 10.1339C69.9272 10.1339 70.178 10.1666 70.4496 10.2312C70.7184 10.2955 70.9131 10.3652 71.028 10.4387L71.1322 10.5057V8.28783L71.0921 8.27253C70.8611 8.18549 70.5343 8.14157 70.1208 8.14157C69.4975 8.14157 68.9397 8.31921 68.4619 8.66895C68.0426 8.97635 67.7395 9.39784 67.5077 9.92343H67.4814ZM60.5591 8.07851C59.4212 8.07851 58.4062 8.29493 57.5429 8.72155C56.6778 9.14915 56.0088 9.75962 55.5536 10.5359C55.1004 11.3103 54.8703 12.2148 54.8703 13.2236C54.8703 14.1072 55.0934 14.9181 55.5343 15.6328C55.9755 16.3486 56.5999 16.9087 57.3904 17.2971C58.1797 17.685 59.092 17.8817 60.1021 17.8817C61.2808 17.8817 62.2872 17.6727 63.0941 17.2605L63.1267 17.2439V15.2285L63.0225 15.296C62.657 15.5321 62.2485 15.7206 61.809 15.8564C61.3706 15.9921 60.9709 16.0607 60.6204 16.0607C59.6472 16.0607 58.8659 15.7906 58.2988 15.2581C57.7304 14.7249 57.4422 13.9761 57.4422 13.034C57.4422 12.0859 57.7428 11.318 58.335 10.7513C58.9255 10.1863 59.7083 9.89975 60.6614 9.89975C61.4766 9.89975 62.2711 10.1446 63.0227 10.6281L63.1267 10.6952V8.57155L63.0931 8.55477C62.8103 8.41434 62.4245 8.29838 61.9456 8.21046C61.4687 8.12272 61.0023 8.07851 60.5591 8.07851ZM53.162 8.30391H50.6817V17.6559H53.162V8.30391ZM51.9472 4.31989C51.539 4.31989 51.1829 4.44314 50.8904 4.68739C50.5967 4.93233 50.4477 5.24072 50.4477 5.60467C50.4477 5.9629 50.5949 6.26566 50.8859 6.50409C51.1749 6.74182 51.5321 6.86232 51.9473 6.86232C52.3625 6.86232 52.721 6.74182 53.0135 6.50448C53.3079 6.26566 53.4572 5.963 53.4572 5.60467C53.4572 5.25345 53.3119 4.94822 53.0256 4.69726C52.7396 4.4468 52.3766 4.31989 51.9472 4.31989ZM45.7586 7.6139V17.6559H48.2899V4.60617H44.7865L40.3333 14.2991L36.0119 4.60617H32.3658V17.6558H34.7445V7.61292H34.8262L39.3896 17.6559H41.1848L45.6769 7.6139H45.7586Z" fill="#434343"/>
<path d="M12.1218 10.5943H0.453491V0.245361H12.1218V10.5943Z" fill="#F40009"/>
<path d="M12.1218 10.5943H0.453491V0.245361H12.1218V10.5943Z" fill="#434343"/>
<path d="M25.0049 10.5943H13.3368V0.245361H25.0049V10.5943Z" fill="#F40009"/>
<path d="M25.0049 10.5943H13.3368V0.245361H25.0049V10.5943Z" fill="#434343"/>
<path d="M12.1214 22.0247H0.453491V11.6759H12.1214V22.0247Z" fill="#F40009"/>
<path d="M12.1214 22.0247H0.453491V11.6759H12.1214V22.0247Z" fill="#434343"/>
<path d="M25.0049 22.0247H13.3368V11.6759H25.0049V22.0247Z" fill="#F40009"/>
<path d="M25.0049 22.0247H13.3368V11.6759H25.0049V22.0247Z" fill="#434343"/>
</mask>
<g mask="url(#mask0_5_84)">
<rect x="-19" y="-27" width="137" height="85" fill="#F40009"/>
<rect x="-19" y="-27" width="137" height="85" fill="#434343"/>
</g>
</svg>
