<svg width="25" height="23" viewBox="0 0 25 23" fill="none" xmlns="http://www.w3.org/2000/svg">
<path fill-rule="evenodd" clip-rule="evenodd" d="M2.55322 0H21.9575C22.6008 0 23.2177 0.263392 23.6726 0.732233C24.1275 1.20107 24.383 1.83696 24.383 2.5V5C24.3804 5.43628 24.2672 5.86428 24.0544 6.24146C23.8417 6.61864 23.5368 6.93186 23.1702 7.15V20C23.1702 20.663 22.9147 21.2989 22.4598 21.7678C22.0049 22.2366 21.388 22.5 20.7447 22.5H3.76598C3.12269 22.5 2.50575 22.2366 2.05087 21.7678C1.596 21.2989 1.34045 20.663 1.34045 20V7.15C0.973862 6.93186 0.669041 6.61864 0.456283 6.24146C0.243526 5.86428 0.130241 5.43628 0.127686 5V2.5C0.127686 1.83696 0.383232 1.20107 0.838107 0.732233C1.29298 0.263392 1.90993 0 2.55322 0ZM21.9575 2.5H2.55322V5H21.9575V2.5ZM3.76598 7.5V20H20.7447V7.5H3.76598ZM17.1064 10H7.40428V12.5H17.1064V10Z" fill="#6563FF"/>
</svg>
