<svg width="30" height="30" viewBox="0 0 30 30" fill="none" xmlns="http://www.w3.org/2000/svg">
<path fill-rule="evenodd" clip-rule="evenodd" d="M18.3262 12.8571H28.0283C28.3142 12.8571 28.5884 12.7443 28.7906 12.5433C28.9928 12.3424 29.1063 12.0699 29.1063 11.7857C29.1063 8.65995 27.857 5.66221 25.6332 3.45196C23.4093 1.24171 20.3932 0 17.2482 0C16.9623 0 16.6881 0.112882 16.4859 0.313814C16.2837 0.514746 16.1702 0.787268 16.1702 1.07143V10.7143C16.1702 11.2826 16.3973 11.8277 16.8017 12.2295C17.206 12.6314 17.7544 12.8571 18.3262 12.8571ZM26.8856 10.7143H18.3262V2.20714C20.5118 2.45096 22.5493 3.42561 24.1045 4.9713C25.6597 6.51699 26.6403 8.54199 26.8856 10.7143ZM3.47317 26.548C5.69701 28.7582 8.71318 30 11.8582 30C15.0031 30 18.0193 28.7582 20.2431 26.548C22.467 24.3377 23.7163 21.34 23.7163 18.2142C23.7163 17.9301 23.6027 17.6576 23.4006 17.4566C23.1984 17.2557 22.9242 17.1428 22.6383 17.1428H12.9362V7.49996C12.9362 7.2158 12.8226 6.94327 12.6204 6.74234C12.4183 6.54141 12.1441 6.42853 11.8582 6.42853C8.71318 6.42853 5.69701 7.67023 3.47317 9.88048C1.24934 12.0907 0 15.0885 0 18.2142C0 21.34 1.24934 24.3377 3.47317 26.548ZM5.81174 10.674C7.24168 9.54307 8.96391 8.83651 10.7801 8.63567V17.1428C10.7801 17.7111 11.0073 18.2562 11.4116 18.658C11.816 19.0599 12.3644 19.2857 12.9362 19.2857H21.4956C21.2935 21.0908 20.5826 22.8025 19.4447 24.2237C18.3068 25.6449 16.7882 26.7178 15.0638 27.3189C13.3393 27.92 11.4791 28.0248 9.69735 27.6212C7.91559 27.2177 6.28472 26.3222 4.99253 25.0379C3.70034 23.7536 2.79937 22.1327 2.39334 20.3618C1.98732 18.591 2.09277 16.7421 2.69754 15.0282C3.3023 13.3143 4.3818 11.8049 5.81174 10.674Z" fill="#6563FF"/>
</svg>
