<svg width="25" height="25" viewBox="0 0 25 25" fill="none" xmlns="http://www.w3.org/2000/svg">
<path d="M23.1489 0H1.31909C0.997444 0 0.688972 0.131696 0.461534 0.366116C0.234096 0.600537 0.106323 0.918479 0.106323 1.25V23.75C0.106323 24.0815 0.234096 24.3995 0.461534 24.6339C0.688972 24.8683 0.997444 25 1.31909 25H23.1489C23.4705 25 23.779 24.8683 24.0064 24.6339C24.2339 24.3995 24.3616 24.0815 24.3616 23.75V1.25C24.3616 0.918479 24.2339 0.600537 24.0064 0.366116C23.779 0.131696 23.4705 0 23.1489 0ZM7.38292 22.5H2.53186V2.5H7.38292V22.5ZM21.9361 22.5H9.80845V13.75H21.9361V22.5ZM21.9361 11.25H9.80845V2.5H21.9361V11.25Z" fill="#6563FF"/>
</svg>
