<svg width="19" height="30" viewBox="0 0 19 30" fill="none" xmlns="http://www.w3.org/2000/svg">
<path d="M8.54786 0C8.79421 0 9.00739 0.0927734 9.18741 0.27832C9.36743 0.463867 9.45744 0.683594 9.45744 0.9375V11.25C9.45744 11.7676 9.36269 12.251 9.1732 12.7002C8.9837 13.1494 8.72315 13.5449 8.39153 13.8867C8.05992 14.2285 7.67145 14.4971 7.22614 14.6924C6.78083 14.8877 6.31183 14.9902 5.81914 15V29.0625C5.81914 29.3164 5.72913 29.5361 5.54911 29.7217C5.36909 29.9072 5.15591 30 4.90957 30C4.66322 30 4.45004 29.9072 4.27002 29.7217C4.09 29.5361 3.99999 29.3164 3.99999 29.0625V15C3.49783 15 3.02883 14.9023 2.59299 14.707C2.15716 14.5117 1.77343 14.2432 1.44181 13.9014C1.1102 13.5596 0.849643 13.1641 0.660148 12.7148C0.470654 12.2656 0.371169 11.7773 0.361694 11.25V0.9375C0.361694 0.683594 0.451704 0.463867 0.631724 0.27832C0.811744 0.0927734 1.02493 0 1.27127 0C1.51761 0 1.73079 0.0927734 1.91081 0.27832C2.09083 0.463867 2.18084 0.683594 2.18084 0.9375V11.25C2.18084 11.5137 2.22822 11.7578 2.32296 11.9824C2.41771 12.207 2.54562 12.4023 2.70669 12.5684C2.86776 12.7344 3.06199 12.8711 3.28939 12.9785C3.51678 13.0859 3.75365 13.1348 3.99999 13.125V0.9375C3.99999 0.683594 4.09 0.463867 4.27002 0.27832C4.45004 0.0927734 4.66322 0 4.90957 0C5.15591 0 5.36909 0.0927734 5.54911 0.27832C5.72913 0.463867 5.81914 0.683594 5.81914 0.9375V13.125C6.07496 13.125 6.31183 13.0762 6.52975 12.9785C6.74767 12.8809 6.93716 12.749 7.09823 12.583C7.2593 12.417 7.39195 12.2168 7.49617 11.9824C7.60039 11.748 7.64777 11.5039 7.63829 11.25V0.9375C7.63829 0.683594 7.7283 0.463867 7.90832 0.27832C8.08834 0.0927734 8.30152 0 8.54786 0ZM18.5532 0V29.0625C18.5532 29.3164 18.4632 29.5361 18.2832 29.7217C18.1031 29.9072 17.89 30 17.6436 30C17.3973 30 17.1841 29.9072 17.0041 29.7217C16.824 29.5361 16.734 29.3164 16.734 29.0625V20.625C16.3835 20.625 16.0045 20.6299 15.5971 20.6396C15.1897 20.6494 14.787 20.6445 14.389 20.625C13.9911 20.6055 13.6026 20.5469 13.2236 20.4492C12.8447 20.3516 12.513 20.2002 12.2288 19.9951C11.9446 19.79 11.7124 19.5117 11.5324 19.1602C11.3524 18.8086 11.2671 18.3594 11.2766 17.8125V6.5625C11.2766 5.6543 11.4424 4.80469 11.774 4.01367C12.1056 3.22266 12.5604 2.5293 13.1384 1.93359C13.7163 1.33789 14.389 0.869141 15.1565 0.527344C15.9239 0.185547 16.753 0.00976562 17.6436 0H18.5532ZM16.734 1.96289C16.2035 2.07031 15.7202 2.26562 15.2844 2.54883C14.8486 2.83203 14.4648 3.18359 14.1332 3.60352C13.8016 4.02344 13.5458 4.47754 13.3658 4.96582C13.1857 5.4541 13.0957 5.98633 13.0957 6.5625V17.8125C13.0957 18.0664 13.1857 18.2861 13.3658 18.4717C13.5458 18.6572 13.759 18.75 14.0053 18.75H16.734V1.96289Z" fill="#6563FF"/>
</svg>
