<svg width="26" height="25" viewBox="0 0 26 25" fill="none" xmlns="http://www.w3.org/2000/svg">
<path d="M10.5744 0H15.4255C17.9987 0 20.4664 1.05357 22.2859 2.92893C24.1054 4.8043 25.1276 7.34784 25.1276 10C25.1276 12.6522 24.1054 15.1957 22.2859 17.0711C20.4664 18.9464 17.9987 20 15.4255 20V24.375C9.36168 21.875 0.872314 18.125 0.872314 10C0.872314 7.34784 1.8945 4.8043 3.714 2.92893C5.5335 1.05357 8.00128 0 10.5744 0ZM13 17.5H15.4255C17.3554 17.5 19.2062 16.7098 20.5708 15.3033C21.9355 13.8968 22.7021 11.9891 22.7021 10C22.7021 8.01088 21.9355 6.10322 20.5708 4.6967C19.2062 3.29018 17.3554 2.5 15.4255 2.5H10.5744C8.64457 2.5 6.79374 3.29018 5.42911 4.6967C4.06449 6.10322 3.29785 8.01088 3.29785 10C3.29785 14.5125 6.28368 17.4575 13 20.6V17.5Z" fill="#6563FF"/>
</svg>
