<svg width="31" height="30" viewBox="0 0 31 30" fill="none" xmlns="http://www.w3.org/2000/svg">
<path d="M11.2164 25.2632C10.7219 25.2632 10.2386 25.4021 9.82746 25.6623C9.41634 25.9226 9.09591 26.2925 8.90669 26.7252C8.71747 27.158 8.66796 27.6342 8.76443 28.0936C8.86089 28.5531 9.09899 28.9751 9.44862 29.3063C9.79825 29.6375 10.2437 29.8631 10.7287 29.9545C11.2136 30.0459 11.7163 29.999 12.1731 29.8197C12.6299 29.6405 13.0204 29.3369 13.2951 28.9474C13.5698 28.5579 13.7164 28.1 13.7164 27.6316C13.7164 27.0034 13.453 26.401 12.9842 25.9569C12.5153 25.5127 11.8794 25.2632 11.2164 25.2632ZM28.7164 20.5263H8.71639C8.27436 20.5263 7.85044 20.36 7.53788 20.0639C7.22532 19.7677 7.04972 19.3661 7.04972 18.9474C7.04972 18.5286 7.22532 18.127 7.53788 17.8309C7.85044 17.5348 8.27436 17.3684 8.71639 17.3684H22.8681C23.9539 17.3652 25.0094 17.0287 25.8763 16.4092C26.7431 15.7898 27.3748 14.9208 27.6764 13.9326L30.3181 5.16947C30.3887 4.93463 30.4008 4.68746 30.3536 4.4474C30.3063 4.20735 30.201 3.98094 30.0457 3.78599C29.8905 3.59104 29.6897 3.43286 29.459 3.32387C29.2284 3.21489 28.9741 3.15807 28.7164 3.15789H8.28306C7.93774 2.23739 7.30111 1.44021 6.45999 0.875069C5.61888 0.30993 4.61423 0.00434788 3.58306 0H2.04972C1.6077 0 1.18377 0.166353 0.871212 0.462463C0.558651 0.758573 0.383057 1.16018 0.383057 1.57895C0.383057 1.99771 0.558651 2.39932 0.871212 2.69543C1.18377 2.99154 1.6077 3.15789 2.04972 3.15789H3.58472C3.94664 3.15899 4.29845 3.27111 4.58749 3.47747C4.87652 3.68383 5.08722 3.97333 5.18806 4.30263L5.44639 5.16316V5.17105L8.18139 14.2374C6.90833 14.3663 5.73599 14.953 4.90597 15.8765C4.07595 16.8 3.6515 17.99 3.7201 19.2011C3.78869 20.4123 4.3451 21.5524 5.27465 22.3865C6.20421 23.2206 7.43608 23.6851 8.71639 23.6842H28.7164C29.1584 23.6842 29.5823 23.5179 29.8949 23.2218C30.2075 22.9256 30.3831 22.524 30.3831 22.1053C30.3831 21.6865 30.2075 21.2849 29.8949 20.9888C29.5823 20.6927 29.1584 20.5263 28.7164 20.5263ZM26.5064 6.31579L24.4731 13.0642C24.3724 13.3941 24.1616 13.6841 23.8722 13.8908C23.5828 14.0975 23.2305 14.2097 22.8681 14.2105H11.6397L11.2147 12.8021L9.25972 6.31579H26.5064ZM24.5497 25.2632C24.0553 25.2632 23.5719 25.4021 23.1608 25.6623C22.7497 25.9226 22.4292 26.2925 22.24 26.7252C22.0508 27.158 22.0013 27.6342 22.0978 28.0936C22.1942 28.5531 22.4323 28.9751 22.782 29.3063C23.1316 29.6375 23.577 29.8631 24.062 29.9545C24.5469 30.0459 25.0496 29.999 25.5064 29.8197C25.9632 29.6405 26.3537 29.3369 26.6284 28.9474C26.9031 28.5579 27.0497 28.1 27.0497 27.6316C27.0497 27.0034 26.7863 26.401 26.3175 25.9569C25.8486 25.5127 25.2128 25.2632 24.5497 25.2632Z" fill="#6563FF"/>
</svg>
