<svg width="112" height="18" viewBox="0 0 112 18" fill="none" xmlns="http://www.w3.org/2000/svg">
<path fill-rule="evenodd" clip-rule="evenodd" d="M110.809 15.0718C110.809 14.9316 110.739 14.7841 110.598 14.7137C110.456 14.6397 110.297 14.6324 110.138 14.6324H109.315V16.2935H109.546V15.5273H109.97L110.509 16.2935H110.783L110.213 15.5273C110.549 15.519 110.809 15.3986 110.809 15.0718ZM109.899 15.3673H109.545V14.7799H110.084C110.318 14.7799 110.575 14.8112 110.575 15.0681C110.576 15.4064 110.164 15.3673 109.899 15.3673ZM100.047 7.04112L103.499 3.79664C103.699 3.55845 103.798 3.39167 103.798 3.24886C103.798 3.01067 103.565 2.91529 102.834 2.91529H101.963V0.866968H111.389V2.91529H110.151C108.72 2.91529 108.455 3.10553 106.459 5.32063L100.998 10.5118V13.6797C100.998 14.4901 101.463 14.7752 102.794 14.7752H104.856V16.7516H91.6525V14.7752H93.714C95.0437 14.7752 95.5096 14.4901 95.5096 13.6797V10.5118L89.0783 4.24852C88.0156 3.15348 88.1625 2.91529 85.2035 2.91529V0.866968H97.1437V2.91529H96.2935C95.4285 2.91529 95.062 3.0581 95.062 3.34372C95.062 3.58243 95.3279 3.77266 95.4942 3.9629L98.7481 7.0849C99.1347 7.4388 99.6065 7.48466 100.047 7.04112ZM19.9343 0.866447H22.8146V6.58194H20.1546C19.9189 5.43947 19.1067 4.99488 18.366 4.3955C17.0298 3.31453 14.1359 2.41441 11.702 2.41441C8.5607 2.41441 5.90955 3.27231 5.90955 4.53362C5.90955 8.03505 23.8749 5.24871 23.8749 11.869C23.8749 15.322 20.0267 17.2509 13.1158 17.2509C10.7234 17.2509 7.1031 16.5974 4.96703 15.5987C4.29744 15.2584 4.01326 15.9208 3.88775 16.7511H0.934668V10.8449H3.60594C4.19502 12.3454 5.0067 12.6545 5.75326 13.2502C7.04863 14.2983 10.132 15.0609 12.9595 15.0364C17.2228 14.9993 18.6887 14.179 18.6887 12.988C18.6887 11.7976 17.2388 11.5115 12.567 10.8688L8.60036 10.2971C4.12397 9.70133 0.864807 8.8205 0.864807 5.67714C0.864807 2.41441 4.98775 0.36609 11.5067 0.36609C14.2537 0.36609 16.552 0.689238 18.7579 1.78689C19.3689 2.13661 19.942 2.17831 19.9343 0.866447ZM76.1447 10.4357L76.2015 4.0833C76.2015 3.2499 75.709 2.96428 74.3017 2.96428H72.6481V0.987884H83.1686V2.96428H81.7975C80.389 2.96428 79.8964 3.25042 79.8964 4.0833V16.872L75.7788 16.8434L62.4438 5.72665V13.8001C62.4438 14.61 62.9363 14.9191 64.3436 14.9191H66.1742V16.872H55.2481V14.9191H57.0586C58.4659 14.9191 58.9584 14.6095 58.9584 13.8001V4.0833C58.9584 3.2499 58.4659 2.96428 57.0586 2.96428H55.2481V0.987884H64.6947L76.1447 10.4357ZM40.9049 0.246216C32.5204 0.246216 27.272 3.50946 27.272 8.74805C27.272 13.8928 32.4476 17.1311 40.6491 17.1311C49.3603 17.1311 54.4276 13.9403 54.4276 8.48641C54.4282 3.58086 48.9601 0.246216 40.9049 0.246216ZM40.7142 15.0598C36.0732 15.0598 33.4055 12.7019 33.4055 8.62922C33.4055 4.65245 36.1893 2.29454 40.9463 2.29454C45.5097 2.29454 48.1775 4.7004 48.1775 8.79653C48.1775 12.7973 45.4707 15.0598 40.7142 15.0598Z" fill="#F40009"/>
<path fill-rule="evenodd" clip-rule="evenodd" d="M110.809 15.0718C110.809 14.9316 110.739 14.7841 110.598 14.7137C110.456 14.6397 110.297 14.6324 110.138 14.6324H109.315V16.2935H109.546V15.5273H109.97L110.509 16.2935H110.783L110.213 15.5273C110.549 15.519 110.809 15.3986 110.809 15.0718ZM109.899 15.3673H109.545V14.7799H110.084C110.318 14.7799 110.575 14.8112 110.575 15.0681C110.576 15.4064 110.164 15.3673 109.899 15.3673ZM100.047 7.04112L103.499 3.79664C103.699 3.55845 103.798 3.39167 103.798 3.24886C103.798 3.01067 103.565 2.91529 102.834 2.91529H101.963V0.866968H111.389V2.91529H110.151C108.72 2.91529 108.455 3.10553 106.459 5.32063L100.998 10.5118V13.6797C100.998 14.4901 101.463 14.7752 102.794 14.7752H104.856V16.7516H91.6525V14.7752H93.714C95.0437 14.7752 95.5096 14.4901 95.5096 13.6797V10.5118L89.0783 4.24852C88.0156 3.15348 88.1625 2.91529 85.2035 2.91529V0.866968H97.1437V2.91529H96.2935C95.4285 2.91529 95.062 3.0581 95.062 3.34372C95.062 3.58243 95.3279 3.77266 95.4942 3.9629L98.7481 7.0849C99.1347 7.4388 99.6065 7.48466 100.047 7.04112ZM19.9343 0.866447H22.8146V6.58194H20.1546C19.9189 5.43947 19.1067 4.99488 18.366 4.3955C17.0298 3.31453 14.1359 2.41441 11.702 2.41441C8.5607 2.41441 5.90955 3.27231 5.90955 4.53362C5.90955 8.03505 23.8749 5.24871 23.8749 11.869C23.8749 15.322 20.0267 17.2509 13.1158 17.2509C10.7234 17.2509 7.1031 16.5974 4.96703 15.5987C4.29744 15.2584 4.01326 15.9208 3.88775 16.7511H0.934668V10.8449H3.60594C4.19502 12.3454 5.0067 12.6545 5.75326 13.2502C7.04863 14.2983 10.132 15.0609 12.9595 15.0364C17.2228 14.9993 18.6887 14.179 18.6887 12.988C18.6887 11.7976 17.2388 11.5115 12.567 10.8688L8.60036 10.2971C4.12397 9.70133 0.864807 8.8205 0.864807 5.67714C0.864807 2.41441 4.98775 0.36609 11.5067 0.36609C14.2537 0.36609 16.552 0.689238 18.7579 1.78689C19.3689 2.13661 19.942 2.17831 19.9343 0.866447ZM76.1447 10.4357L76.2015 4.0833C76.2015 3.2499 75.709 2.96428 74.3017 2.96428H72.6481V0.987884H83.1686V2.96428H81.7975C80.389 2.96428 79.8964 3.25042 79.8964 4.0833V16.872L75.7788 16.8434L62.4438 5.72665V13.8001C62.4438 14.61 62.9363 14.9191 64.3436 14.9191H66.1742V16.872H55.2481V14.9191H57.0586C58.4659 14.9191 58.9584 14.6095 58.9584 13.8001V4.0833C58.9584 3.2499 58.4659 2.96428 57.0586 2.96428H55.2481V0.987884H64.6947L76.1447 10.4357ZM40.9049 0.246216C32.5204 0.246216 27.272 3.50946 27.272 8.74805C27.272 13.8928 32.4476 17.1311 40.6491 17.1311C49.3603 17.1311 54.4276 13.9403 54.4276 8.48641C54.4282 3.58086 48.9601 0.246216 40.9049 0.246216ZM40.7142 15.0598C36.0732 15.0598 33.4055 12.7019 33.4055 8.62922C33.4055 4.65245 36.1893 2.29454 40.9463 2.29454C45.5097 2.29454 48.1775 4.7004 48.1775 8.79653C48.1775 12.7973 45.4707 15.0598 40.7142 15.0598Z" fill="#434343"/>
</svg>
