<svg width="112" height="42" viewBox="0 0 112 42" fill="none" xmlns="http://www.w3.org/2000/svg">
<path d="M56.167 4.71813C56.9265 4.74968 57.6519 5.00733 58.2264 5.4496C59.0094 6.10791 59.2147 7.20564 58.8441 8.08393C57.4035 10.7177 53.9775 12.477 51.6364 13.0589C50.2358 13.3515 48.4651 13.3515 47.1881 12.9127C46.5698 13.2418 46.0483 14.3056 45.2933 13.8636C44.2007 13.1056 45.1465 11.9193 44.5158 11.0776C44.3857 10.9043 44.058 10.8916 43.8933 10.608C43.028 8.92511 44.0992 7.31536 45.2933 6.0353C47.2842 4.06247 52.9958 1.86437 56.167 4.71813ZM49.5358 6.03477C48.4234 6.21764 47.1672 6.6475 46.4881 7.35194C45.8084 8.05584 45.3763 8.74225 45.7881 9.47371C47.2298 8.52281 47.9299 7.20564 49.5363 6.40103C49.5357 6.25421 49.7828 6.14449 49.5358 6.03477ZM56.25 6.40103C53.4076 6.18106 51.2658 8.08393 49.2475 9.91259C49.124 10.2052 48.3828 10.5343 48.9593 10.8635C51.6781 11.0829 54.2729 10.3886 56.25 8.77829C56.827 8.30284 57.2376 7.68109 56.9506 7.02225C56.827 6.76676 56.5364 6.51075 56.25 6.40103ZM80.879 17.3025C82.1973 20.1563 83.3091 24.6553 80.879 27.3993C80.2202 28.0577 79.0673 28.6646 78.3261 28.1674C75.6072 26.229 74.4549 23.4484 72.766 20.9603C72.519 20.8506 72.519 21.1437 72.3954 21.2535C71.7778 23.7775 72.9307 27.0702 70.9954 29.0451C70.2542 29.1549 69.5608 28.8162 69.3066 28.1674C68.3589 25.5702 69.3465 22.8627 69.5936 20.2655C70.1707 18.9483 70.4177 17.4122 71.6948 16.4242C73.7543 17.1557 74.7425 19.2048 75.936 20.7049C76.8019 21.8386 77.5013 23.1192 78.4896 24.1433C79.3543 23.8141 78.9288 22.8102 78.9019 22.2044C78.5713 19.8266 77.8302 17.6317 77.1296 15.3636C77.0896 14.7784 76.719 13.7904 77.4178 13.4247C79.2737 14.1567 80.0549 15.8756 80.879 17.3025ZM68.4407 16.4242C68.4407 16.9733 67.9465 17.6592 67.5336 17.7414C63.58 18.29 59.1729 17.9608 55.4664 19.058C55.3429 19.4603 55.8782 19.5335 56.1664 19.6432C59.337 20.0821 62.6741 20.1918 65.7636 20.8872C67.3969 21.2556 67.9883 22.9729 68.1118 24.3993C68.1876 25.524 67.7007 26.8868 66.4642 27.6554C63.4171 29.3748 58.7629 29.3012 55.6729 27.729C54.4919 27.1407 53.3664 26.193 53.284 25.0221C53.2912 24.0924 53.7376 23.3604 54.4788 23.01C57.4447 21.9489 61.11 22.5351 63.6642 23.8878C63.8277 24.6198 62.9361 24.58 62.5094 24.8392C59.667 26.3027 57.5258 23.194 54.8899 24.3267C54.5193 24.5461 54.2514 25.1583 54.684 25.3512C57.9376 26.6318 61.5624 25.717 64.7747 24.9124C65.1453 24.8026 65.5989 24.4735 65.6395 24.1443C65.5159 22.9735 64.0336 22.718 63.0859 22.3888C60.2853 21.7671 57.1964 21.7671 54.1893 21.5111C53.6128 21.4013 52.8782 21.0446 52.707 20.6333C52.3775 19.7555 52.3775 18.5481 53.1187 17.8166C56.9488 14.8166 62.7559 15.0731 67.6159 15.8777C67.9459 15.9853 68.3165 16.095 68.4407 16.4242ZM50.4422 17.8145C50.8128 21.3261 51.0187 24.5827 50.9364 28.2771C50.854 28.752 50.2363 28.8623 49.8246 29.0451C49.1658 29.1549 48.3142 29.0303 48.0534 28.716C47.1063 27.3617 47.4357 25.5336 47.3534 23.8873C47.4769 21.2906 47.4357 18.4734 48.2599 16.0585C48.4174 15.7076 48.8775 15.4002 49.2481 15.6191C50.2364 16.0585 50.4011 16.9368 50.4422 17.8145ZM96.2022 17.3025C96.4003 17.5983 96.6074 18.0552 96.2022 18.2534C94.3486 18.9849 91.8368 18.6557 89.6944 18.8751C89.118 19.314 88.6644 20.0455 88.8697 20.7043C89.0768 20.8141 89.2612 20.981 89.4886 20.9598C90.8056 21.0335 92.7833 20.4112 93.6492 21.5084C93.8605 21.8349 93.6206 23.054 93.0315 23.0816C91.4245 23.2655 88.782 22.9024 88.0056 23.2655C87.0174 23.8507 87.0991 24.9845 86.7285 25.8998C87.4291 26.3021 88.1625 25.8903 88.9932 25.7896C90.5186 25.5702 92.2074 25.1679 93.7304 25.4604C94.0186 25.9359 94.431 26.4484 94.1421 27.0336C91.5456 28.8628 88.1966 30.7376 84.6285 29.4114C83.2894 28.8782 82.6926 27.0702 83.1461 25.5346C83.4338 24.4369 84.7103 23.3763 83.9285 22.2054C83.805 21.6929 84.135 21.2545 84.6291 21.1448C85.9879 21.1448 85.6991 19.6448 86.3997 18.9493C85.6173 18.1813 83.6409 18.2179 83.8467 16.6813C84.7944 16.2424 85.948 16.3887 87.0173 16.2424C89.4474 15.803 92.1656 15.547 94.6386 15.803C95.131 15.891 95.7904 16.7539 96.2022 17.3025ZM37.3856 8.96169C41.1864 11.7211 46.1175 16.4247 45.4998 21.8386C44.758 26.1193 39.6509 29.3383 35.3262 30.3628C31.125 31.46 25.8531 31.3503 21.569 30.4726C21.2807 31.168 20.9925 32.0086 20.0866 32.3017C19.5101 32.4846 18.7683 32.3749 18.3154 32.0457C17.0389 30.9846 18.0683 28.9359 16.2148 28.2782C12.59 26.9244 8.67705 24.2535 6.8241 20.9614C6.57703 20.3031 6.86527 19.6448 7.31822 19.1327C10.1606 17.1207 13.7436 16.3161 17.3272 15.6938C17.533 15.767 17.4507 15.5109 17.6154 15.4378C17.8213 13.2429 17.9036 11.0108 18.686 9.03536C18.8644 8.75815 19.3036 8.66963 19.5925 8.8525C21.8578 10.3886 20.7866 13.2794 21.7754 15.3641C26.1002 15.547 30.425 15.7298 33.8432 17.8887C34.9968 18.7299 35.2778 20.3365 34.9138 21.2545C34.5504 22.171 33.3491 22.8277 32.2367 22.8998C31.495 22.8998 30.0949 22.9639 30.1773 22.4614C30.2596 21.9584 32.6968 21.1353 31.9485 20.4489C30.8725 19.4624 25.4891 18.8757 22.1526 18.5099C21.7408 18.4368 21.3631 18.5465 21.3631 18.9488C21.2807 21.7289 21.0337 24.8016 21.569 27.473C21.6101 27.6564 21.8572 27.8759 22.0637 27.9114C27.9532 28.7531 34.1726 28.2771 38.7856 25.2776C40.9274 23.742 41.628 21.5821 41.2568 19.2048C39.4033 12.5835 31.6191 8.59542 25.2349 6.03477C19.016 3.62041 12.1371 2.37639 4.76466 2.70608C3.59082 2.78241 1.73071 3.14231 1.71698 3.51122C1.70326 3.88013 3.82416 3.76405 3.56994 4.46212C3.31631 5.15966 1.1608 4.7457 0.522258 4.57184C-0.116281 4.39799 -0.0542171 3.58384 0.11049 3.07181C1.71698 0.54773 6.19988 0.343663 8.2247 0.255145C19.4272 -0.00139707 30.2602 3.78791 37.3856 8.96169ZM17.2036 18.766C14.3612 18.8025 11.3547 19.0585 8.71882 19.9363C8.18353 20.1192 7.5241 20.6312 7.93587 21.2535C9.00646 22.5335 10.5378 23.5846 11.9724 24.3261C13.407 25.0666 15.3089 26.009 17.0389 26.229C17.4507 23.8507 17.4507 21.5095 17.4095 19.0585C17.2442 18.9854 17.4089 18.8391 17.2036 18.766ZM102.338 15.4367C102.215 18.6191 98.8775 20.5951 98.8775 23.7775C99.001 23.8873 99.0845 24.0336 99.2481 23.9615C101.926 21.3637 104.562 17.6688 108.475 16.5716C109.506 16.4984 110.437 17.294 110.823 17.8887C112.182 20.3031 111.854 23.7055 109.959 25.9004C108.003 28.055 104.603 30.2171 100.733 29.8508C99.1275 33.3629 98.0133 37.0579 97.3957 40.8991C97.0663 41.6671 96.2845 40.9722 95.7904 40.826C92.4545 38.4847 95.1936 32.2869 95.4198 31.4961C95.646 30.7074 96.5387 28.8469 97.1916 27.2891C95.6263 24.8021 96.6145 21.8015 97.891 19.4969C98.8792 17.9603 100.24 16.4237 101.846 15.2533C102.05 15.2539 102.215 15.2904 102.338 15.4367ZM108.971 19.3877C108.476 19.3146 108.27 19.9002 107.859 20.01C105.965 21.9123 104.069 23.8146 103.122 26.0827C104.399 26.229 105.469 25.4975 106.582 25.0952C108.476 24.0341 109.671 22.2791 109.548 20.2665C109.465 19.9363 109.135 19.6803 108.971 19.3877Z" fill="#F40009"/>
<path d="M56.167 4.71813C56.9265 4.74968 57.6519 5.00733 58.2264 5.4496C59.0094 6.10791 59.2147 7.20564 58.8441 8.08393C57.4035 10.7177 53.9775 12.477 51.6364 13.0589C50.2358 13.3515 48.4651 13.3515 47.1881 12.9127C46.5698 13.2418 46.0483 14.3056 45.2933 13.8636C44.2007 13.1056 45.1465 11.9193 44.5158 11.0776C44.3857 10.9043 44.058 10.8916 43.8933 10.608C43.028 8.92511 44.0992 7.31536 45.2933 6.0353C47.2842 4.06247 52.9958 1.86437 56.167 4.71813ZM49.5358 6.03477C48.4234 6.21764 47.1672 6.6475 46.4881 7.35194C45.8084 8.05584 45.3763 8.74225 45.7881 9.47371C47.2298 8.52281 47.9299 7.20564 49.5363 6.40103C49.5357 6.25421 49.7828 6.14449 49.5358 6.03477ZM56.25 6.40103C53.4076 6.18106 51.2658 8.08393 49.2475 9.91259C49.124 10.2052 48.3828 10.5343 48.9593 10.8635C51.6781 11.0829 54.2729 10.3886 56.25 8.77829C56.827 8.30284 57.2376 7.68109 56.9506 7.02225C56.827 6.76676 56.5364 6.51075 56.25 6.40103ZM80.879 17.3025C82.1973 20.1563 83.3091 24.6553 80.879 27.3993C80.2202 28.0577 79.0673 28.6646 78.3261 28.1674C75.6072 26.229 74.4549 23.4484 72.766 20.9603C72.519 20.8506 72.519 21.1437 72.3954 21.2535C71.7778 23.7775 72.9307 27.0702 70.9954 29.0451C70.2542 29.1549 69.5608 28.8162 69.3066 28.1674C68.3589 25.5702 69.3465 22.8627 69.5936 20.2655C70.1707 18.9483 70.4177 17.4122 71.6948 16.4242C73.7543 17.1557 74.7425 19.2048 75.936 20.7049C76.8019 21.8386 77.5013 23.1192 78.4896 24.1433C79.3543 23.8141 78.9288 22.8102 78.9019 22.2044C78.5713 19.8266 77.8302 17.6317 77.1296 15.3636C77.0896 14.7784 76.719 13.7904 77.4178 13.4247C79.2737 14.1567 80.0549 15.8756 80.879 17.3025ZM68.4407 16.4242C68.4407 16.9733 67.9465 17.6592 67.5336 17.7414C63.58 18.29 59.1729 17.9608 55.4664 19.058C55.3429 19.4603 55.8782 19.5335 56.1664 19.6432C59.337 20.0821 62.6741 20.1918 65.7636 20.8872C67.3969 21.2556 67.9883 22.9729 68.1118 24.3993C68.1876 25.524 67.7007 26.8868 66.4642 27.6554C63.4171 29.3748 58.7629 29.3012 55.6729 27.729C54.4919 27.1407 53.3664 26.193 53.284 25.0221C53.2912 24.0924 53.7376 23.3604 54.4788 23.01C57.4447 21.9489 61.11 22.5351 63.6642 23.8878C63.8277 24.6198 62.9361 24.58 62.5094 24.8392C59.667 26.3027 57.5258 23.194 54.8899 24.3267C54.5193 24.5461 54.2514 25.1583 54.684 25.3512C57.9376 26.6318 61.5624 25.717 64.7747 24.9124C65.1453 24.8026 65.5989 24.4735 65.6395 24.1443C65.5159 22.9735 64.0336 22.718 63.0859 22.3888C60.2853 21.7671 57.1964 21.7671 54.1893 21.5111C53.6128 21.4013 52.8782 21.0446 52.707 20.6333C52.3775 19.7555 52.3775 18.5481 53.1187 17.8166C56.9488 14.8166 62.7559 15.0731 67.6159 15.8777C67.9459 15.9853 68.3165 16.095 68.4407 16.4242ZM50.4422 17.8145C50.8128 21.3261 51.0187 24.5827 50.9364 28.2771C50.854 28.752 50.2363 28.8623 49.8246 29.0451C49.1658 29.1549 48.3142 29.0303 48.0534 28.716C47.1063 27.3617 47.4357 25.5336 47.3534 23.8873C47.4769 21.2906 47.4357 18.4734 48.2599 16.0585C48.4174 15.7076 48.8775 15.4002 49.2481 15.6191C50.2364 16.0585 50.4011 16.9368 50.4422 17.8145ZM96.2022 17.3025C96.4003 17.5983 96.6074 18.0552 96.2022 18.2534C94.3486 18.9849 91.8368 18.6557 89.6944 18.8751C89.118 19.314 88.6644 20.0455 88.8697 20.7043C89.0768 20.8141 89.2612 20.981 89.4886 20.9598C90.8056 21.0335 92.7833 20.4112 93.6492 21.5084C93.8605 21.8349 93.6206 23.054 93.0315 23.0816C91.4245 23.2655 88.782 22.9024 88.0056 23.2655C87.0174 23.8507 87.0991 24.9845 86.7285 25.8998C87.4291 26.3021 88.1625 25.8903 88.9932 25.7896C90.5186 25.5702 92.2074 25.1679 93.7304 25.4604C94.0186 25.9359 94.431 26.4484 94.1421 27.0336C91.5456 28.8628 88.1966 30.7376 84.6285 29.4114C83.2894 28.8782 82.6926 27.0702 83.1461 25.5346C83.4338 24.4369 84.7103 23.3763 83.9285 22.2054C83.805 21.6929 84.135 21.2545 84.6291 21.1448C85.9879 21.1448 85.6991 19.6448 86.3997 18.9493C85.6173 18.1813 83.6409 18.2179 83.8467 16.6813C84.7944 16.2424 85.948 16.3887 87.0173 16.2424C89.4474 15.803 92.1656 15.547 94.6386 15.803C95.131 15.891 95.7904 16.7539 96.2022 17.3025ZM37.3856 8.96169C41.1864 11.7211 46.1175 16.4247 45.4998 21.8386C44.758 26.1193 39.6509 29.3383 35.3262 30.3628C31.125 31.46 25.8531 31.3503 21.569 30.4726C21.2807 31.168 20.9925 32.0086 20.0866 32.3017C19.5101 32.4846 18.7683 32.3749 18.3154 32.0457C17.0389 30.9846 18.0683 28.9359 16.2148 28.2782C12.59 26.9244 8.67705 24.2535 6.8241 20.9614C6.57703 20.3031 6.86527 19.6448 7.31822 19.1327C10.1606 17.1207 13.7436 16.3161 17.3272 15.6938C17.533 15.767 17.4507 15.5109 17.6154 15.4378C17.8213 13.2429 17.9036 11.0108 18.686 9.03536C18.8644 8.75815 19.3036 8.66963 19.5925 8.8525C21.8578 10.3886 20.7866 13.2794 21.7754 15.3641C26.1002 15.547 30.425 15.7298 33.8432 17.8887C34.9968 18.7299 35.2778 20.3365 34.9138 21.2545C34.5504 22.171 33.3491 22.8277 32.2367 22.8998C31.495 22.8998 30.0949 22.9639 30.1773 22.4614C30.2596 21.9584 32.6968 21.1353 31.9485 20.4489C30.8725 19.4624 25.4891 18.8757 22.1526 18.5099C21.7408 18.4368 21.3631 18.5465 21.3631 18.9488C21.2807 21.7289 21.0337 24.8016 21.569 27.473C21.6101 27.6564 21.8572 27.8759 22.0637 27.9114C27.9532 28.7531 34.1726 28.2771 38.7856 25.2776C40.9274 23.742 41.628 21.5821 41.2568 19.2048C39.4033 12.5835 31.6191 8.59542 25.2349 6.03477C19.016 3.62041 12.1371 2.37639 4.76466 2.70608C3.59082 2.78241 1.73071 3.14231 1.71698 3.51122C1.70326 3.88013 3.82416 3.76405 3.56994 4.46212C3.31631 5.15966 1.1608 4.7457 0.522258 4.57184C-0.116281 4.39799 -0.0542171 3.58384 0.11049 3.07181C1.71698 0.54773 6.19988 0.343663 8.2247 0.255145C19.4272 -0.00139707 30.2602 3.78791 37.3856 8.96169ZM17.2036 18.766C14.3612 18.8025 11.3547 19.0585 8.71882 19.9363C8.18353 20.1192 7.5241 20.6312 7.93587 21.2535C9.00646 22.5335 10.5378 23.5846 11.9724 24.3261C13.407 25.0666 15.3089 26.009 17.0389 26.229C17.4507 23.8507 17.4507 21.5095 17.4095 19.0585C17.2442 18.9854 17.4089 18.8391 17.2036 18.766ZM102.338 15.4367C102.215 18.6191 98.8775 20.5951 98.8775 23.7775C99.001 23.8873 99.0845 24.0336 99.2481 23.9615C101.926 21.3637 104.562 17.6688 108.475 16.5716C109.506 16.4984 110.437 17.294 110.823 17.8887C112.182 20.3031 111.854 23.7055 109.959 25.9004C108.003 28.055 104.603 30.2171 100.733 29.8508C99.1275 33.3629 98.0133 37.0579 97.3957 40.8991C97.0663 41.6671 96.2845 40.9722 95.7904 40.826C92.4545 38.4847 95.1936 32.2869 95.4198 31.4961C95.646 30.7074 96.5387 28.8469 97.1916 27.2891C95.6263 24.8021 96.6145 21.8015 97.891 19.4969C98.8792 17.9603 100.24 16.4237 101.846 15.2533C102.05 15.2539 102.215 15.2904 102.338 15.4367ZM108.971 19.3877C108.476 19.3146 108.27 19.9002 107.859 20.01C105.965 21.9123 104.069 23.8146 103.122 26.0827C104.399 26.229 105.469 25.4975 106.582 25.0952C108.476 24.0341 109.671 22.2791 109.548 20.2665C109.465 19.9363 109.135 19.6803 108.971 19.3877Z" fill="#434343"/>
</svg>
