<svg width="25" height="25" viewBox="0 0 25 25" fill="none" xmlns="http://www.w3.org/2000/svg">
<path d="M8.80013 11.6185C8.68646 11.7348 8.59624 11.873 8.53467 12.0253C8.4731 12.1777 8.4414 12.341 8.4414 12.506C8.4414 12.6711 8.4731 12.8344 8.53467 12.9868C8.59624 13.1391 8.68646 13.2773 8.80013 13.3935C9.02736 13.6264 9.33474 13.757 9.65513 13.757C9.97553 13.757 10.2829 13.6264 10.5101 13.3935C10.6238 13.2773 10.714 13.1391 10.7756 12.9868C10.8372 12.8344 10.8689 12.6711 10.8689 12.506C10.8689 12.341 10.8372 12.1777 10.7756 12.0253C10.714 11.873 10.6238 11.7348 10.5101 11.6185C10.2829 11.3857 9.97553 11.2551 9.65513 11.2551C9.33474 11.2551 9.02736 11.3857 8.80013 11.6185ZM11.7957 14.7185C11.5698 14.9528 11.443 15.2696 11.443 15.5998C11.443 15.93 11.5698 16.2468 11.7957 16.481C11.9084 16.5982 12.0425 16.6912 12.1903 16.7547C12.3381 16.8181 12.4966 16.8508 12.6567 16.8508C12.8168 16.8508 12.9753 16.8181 13.1231 16.7547C13.2709 16.6912 13.4051 16.5982 13.5178 16.481C13.7437 16.2468 13.8705 15.93 13.8705 15.5998C13.8705 15.2696 13.7437 14.9528 13.5178 14.7185C13.4051 14.6014 13.2709 14.5084 13.1231 14.4449C12.9753 14.3815 12.8168 14.3488 12.6567 14.3488C12.4966 14.3488 12.3381 14.3815 12.1903 14.4449C12.0425 14.5084 11.9084 14.6014 11.7957 14.7185ZM22.7106 2.21855C21.3913 0.847582 19.6099 0.053867 17.7372 0.00264237C15.8644 -0.0485823 14.0447 0.64663 12.6567 1.94355C11.2752 0.661773 9.47015 -0.0264758 7.61189 0.0200122C5.75364 0.0665002 3.9831 0.8442 2.66354 2.19355C1.35256 3.55585 0.598016 5.38422 0.555154 7.30249C0.512291 9.22075 1.18437 11.083 2.43311 12.506C1.49949 13.5818 0.886884 14.9125 0.668796 16.3382C0.450708 17.764 0.636407 19.2243 1.20361 20.544C1.77081 21.8637 2.69542 22.9866 3.86649 23.7781C5.03755 24.5696 6.40532 24.9959 7.80567 25.006C9.60083 25.008 11.3316 24.3168 12.6567 23.0686C14.0389 24.354 15.8466 25.0445 17.7077 24.998C19.5688 24.9515 21.3419 24.1715 22.662 22.8185C23.9713 21.4546 24.7237 19.6254 24.7643 17.7071C24.8049 15.7889 24.1307 13.9275 22.8803 12.506C24.1307 11.0846 24.8049 9.22322 24.7643 7.30498C24.7237 5.38673 23.9713 3.55747 22.662 2.19355L22.7106 2.21855ZM20.9399 3.96855C21.7833 4.86278 22.272 6.0496 22.3102 7.2961C22.3483 8.54261 21.9331 9.75881 21.1461 10.706L14.4031 3.75605C15.3302 2.96322 16.5065 2.54718 17.7106 2.58632C18.9146 2.62547 20.0632 3.11708 20.9399 3.96855ZM4.37354 21.0435C3.53014 20.1493 3.04142 18.9625 3.00328 17.716C2.96513 16.4695 3.38032 15.2533 4.16737 14.306L10.9589 21.306C10.0215 22.1036 8.83217 22.5176 7.61763 22.4692C6.40309 22.4208 5.24832 21.9133 4.37354 21.0435ZM20.9399 21.0435C20.0191 21.9512 18.7941 22.4578 17.5199 22.4578C16.2458 22.4578 15.0207 21.9512 14.0999 21.0435L4.39779 11.0435C3.49428 10.1067 2.98714 8.83948 2.98714 7.51855C2.98714 6.19762 3.49428 4.93036 4.39779 3.99355C5.3067 3.06229 6.53621 2.53959 7.81779 2.53959C9.09938 2.53959 10.3289 3.06229 11.2378 3.99355L20.9399 13.9935C21.8434 14.9304 22.3506 16.1976 22.3506 17.5185C22.3506 18.8395 21.8434 20.1067 20.9399 21.0435ZM14.8033 11.6185C14.6897 11.7348 14.5994 11.873 14.5379 12.0253C14.4763 12.1777 14.4446 12.341 14.4446 12.506C14.4446 12.6711 14.4763 12.8344 14.5379 12.9868C14.5994 13.1391 14.6897 13.2773 14.8033 13.3935C15.0306 13.6264 15.3379 13.757 15.6583 13.757C15.9787 13.757 16.2861 13.6264 16.5133 13.3935C16.627 13.2773 16.7172 13.1391 16.7788 12.9868C16.8404 12.8344 16.8721 12.6711 16.8721 12.506C16.8721 12.341 16.8404 12.1777 16.7788 12.0253C16.7172 11.873 16.627 11.7348 16.5133 11.6185C16.2861 11.3857 15.9787 11.2551 15.6583 11.2551C15.3379 11.2551 15.0306 11.3857 14.8033 11.6185ZM11.7957 8.53105C11.5698 8.76525 11.443 9.08207 11.443 9.4123C11.443 9.74253 11.5698 10.0593 11.7957 10.2935C11.9084 10.4107 12.0425 10.5037 12.1903 10.5672C12.3381 10.6306 12.4966 10.6633 12.6567 10.6633C12.8168 10.6633 12.9753 10.6306 13.1231 10.5672C13.2709 10.5037 13.4051 10.4107 13.5178 10.2935C13.7437 10.0593 13.8705 9.74253 13.8705 9.4123C13.8705 9.08207 13.7437 8.76525 13.5178 8.53105C13.4051 8.41389 13.2709 8.3209 13.1231 8.25743C12.9753 8.19397 12.8168 8.1613 12.6567 8.1613C12.4966 8.1613 12.3381 8.19397 12.1903 8.25743C12.0425 8.3209 11.9084 8.41389 11.7957 8.53105Z" fill="#6563FF"/>
</svg>
