<svg width="30" height="30" viewBox="0 0 30 30" fill="none" xmlns="http://www.w3.org/2000/svg">
<path fill-rule="evenodd" clip-rule="evenodd" d="M15.242 0H15.3963C18.5222 0 20.9712 8.31693e-08 22.8828 0.265116C24.8376 0.535814 26.381 1.10233 27.5926 2.34977C28.8042 3.5986 29.3525 5.1893 29.6152 7.20558C29.8724 9.17442 29.8724 11.6986 29.8724 14.9205V15.0795C29.8724 18.3014 29.8724 20.8256 29.6152 22.7958C29.3525 24.8107 28.8029 26.4014 27.5926 27.6502C26.381 28.8991 24.8376 29.4642 22.8814 29.7349C20.9712 30 18.5222 30 15.3963 30H15.242C12.1161 30 9.66713 30 7.75558 29.7349C5.80072 29.4642 4.2574 28.8977 3.04577 27.6502C1.83413 26.4014 1.28584 24.8107 1.02321 22.7944C0.765991 20.8256 0.765991 18.3014 0.765991 15.0795V14.9205C0.765991 11.6986 0.765991 9.17442 1.02321 7.20419C1.28584 5.1893 1.83548 3.5986 3.04577 2.34977C4.2574 1.10093 5.80072 0.535814 7.75694 0.265116C9.66713 8.31693e-08 12.1161 0 15.242 0ZM8.02634 2.3386C6.2962 2.5786 5.25244 3.03628 4.48213 3.83023C3.71047 4.62558 3.26779 5.7 3.03494 7.48465C2.99838 7.76651 2.96725 8.06093 2.94017 8.37209H7.9925L11.8589 2.10977C10.3332 2.13349 9.07959 2.19349 8.02634 2.3386ZM14.2456 2.09302C14.2202 2.16785 14.1866 2.23947 14.1455 2.30651L10.3995 8.37209H16.7921L20.6233 2.16558C19.1869 2.09302 17.4527 2.09302 15.3192 2.09302H14.2456ZM22.8977 2.38186L19.1991 8.37209H27.6968C27.6698 8.06093 27.64 7.76651 27.6021 7.48465C27.3706 5.7 26.9279 4.62419 26.1562 3.82884C25.4293 3.07953 24.4586 2.63163 22.8977 2.38186ZM27.8051 10.4651H8.56515C8.55432 10.4653 8.54349 10.4653 8.53266 10.4651H2.83322C2.80127 11.9765 2.78908 13.4883 2.79667 15C2.79667 18.3181 2.79938 20.7014 3.03494 22.5153C3.26779 24.3 3.71183 25.3758 4.48213 26.1712C5.25379 26.9651 6.2962 27.4214 8.0277 27.6614C9.78762 27.9042 12.0999 27.907 15.3192 27.907C18.5385 27.907 20.8507 27.9042 22.6107 27.6614C24.3422 27.4214 25.3859 26.9637 26.1576 26.1698C26.9279 25.3744 27.3706 24.3 27.6034 22.5153C27.839 20.7014 27.8417 18.3181 27.8417 15C27.8417 13.2447 27.8417 11.7516 27.8051 10.4651Z" fill="#6563FF"/>
</svg>
