<svg width="21" height="29" viewBox="0 0 21 29" fill="none" xmlns="http://www.w3.org/2000/svg">
<path fill-rule="evenodd" clip-rule="evenodd" d="M2 10.4472C2 15.1159 5.77695 18.8945 10.4285 18.8945C15.08 18.8945 18.857 15.1159 18.857 10.4472C18.857 5.77857 15.08 2 10.4285 2C5.77695 2 2 5.77857 2 10.4472ZM0 10.4472C-2.33456e-07 15.8247 4.05557 20.2533 9.26974 20.8307V25.6667H11.2697V20.861C16.6358 20.4319 20.857 15.9334 20.857 10.4472C20.857 4.67739 16.188 0 10.4285 0C4.66899 0 2.50489e-07 4.67739 0 10.4472ZM4.86502 29H15.7901V27H4.86502V29Z" fill="black"/>
</svg>
