<svg width="23" height="23" viewBox="0 0 23 23" fill="none" xmlns="http://www.w3.org/2000/svg">
<path fill-rule="evenodd" clip-rule="evenodd" d="M16.9475 16.8193C13.6388 20.1078 8.24011 20.1038 4.88929 16.7735C1.53846 13.4432 1.53438 8.07757 4.84317 4.78903C8.15196 1.5005 13.5506 1.50456 16.9014 4.83487C20.2523 8.16518 20.2563 13.5308 16.9475 16.8193ZM17.4955 19.0038C13.3703 22.2829 7.31613 22.0052 3.47074 18.1833C-0.655236 14.0826 -0.675883 7.45457 3.42462 3.37917C7.52513 -0.696234 14.194 -0.675713 18.32 3.425C22.2449 7.3259 22.4548 13.5139 18.9362 17.6158L22.3722 21.0309L20.9537 22.4408L17.4955 19.0038Z" fill="black"/>
</svg>
